G04 Generated by Ultiboard 14.0 *
%FSLAX34Y34*%
%MOMM*%

%ADD10C,0.0001*%
%ADD11C,0.0010*%
%ADD12C,0.4000*%
%ADD13C,2.0000*%
%ADD14C,1.0000*%
%ADD15C,0.1270*%
%ADD16C,1.6088*%
%ADD17R,0.5291X0.5291*%
%ADD18C,0.9949*%
%ADD19C,2.6500*%
%ADD20R,2.6500X2.6500*%
%ADD21C,1.9898*%
%ADD22C,1.5000*%
%ADD23R,1.5000X1.5000*%
%ADD24C,1.2446*%
%ADD25C,1.5366*%
%ADD26C,1.0000*%
%ADD27C,1.3556*%


G04 ColorRGB 0000FF for the following layer *
%LNCopper Bottom*%
%LPD*%
G54D10*
G54D11*
G36*
X109320Y34200D02*
X109320Y34200D01*
X109320Y24200D01*
X125320Y24200D01*
X125320Y34200D01*
X109320Y34200D01*
D02*
G37*
X109320Y24200D01*
X125320Y24200D01*
X125320Y34200D01*
X109320Y34200D01*
G36*
X82320Y68200D02*
X82320Y68200D01*
X92320Y68200D01*
X92320Y84200D01*
X82320Y84200D01*
X82320Y68200D01*
D02*
G37*
X92320Y68200D01*
X92320Y84200D01*
X82320Y84200D01*
X82320Y68200D01*
G36*
X142320Y68200D02*
X142320Y68200D01*
X152320Y68200D01*
X152320Y84200D01*
X142320Y84200D01*
X142320Y68200D01*
D02*
G37*
X152320Y68200D01*
X152320Y84200D01*
X142320Y84200D01*
X142320Y68200D01*
G54D12*
X213360Y132080D02*
X205420Y132080D01*
X202500Y135000D01*
X30000Y135000D01*
X22500Y142500D01*
X22500Y352500D01*
X30000Y360000D01*
X37500Y360000D01*
X45000Y367500D01*
X45000Y400460D01*
X50940Y406400D01*
X594360Y187960D02*
X600000Y193600D01*
X600000Y277500D01*
X592500Y285000D01*
X579120Y285000D01*
X579120Y294640D01*
X411480Y86360D02*
X407840Y90000D01*
X337500Y90000D01*
X330000Y97500D01*
X330000Y193040D01*
X320040Y193040D01*
X127140Y406400D02*
X120000Y399260D01*
X120000Y397500D01*
X112500Y390000D01*
X112500Y367500D01*
X243840Y193040D02*
X243840Y198660D01*
X232500Y210000D01*
X187500Y210000D01*
X180000Y217500D01*
X180000Y390000D01*
X187500Y397500D01*
X225000Y397500D01*
X228600Y401100D01*
X228600Y406400D01*
X551480Y86360D02*
X543640Y86360D01*
X532500Y97500D01*
X532500Y210000D01*
X528320Y214180D01*
X528320Y218440D01*
X330000Y150000D02*
X232500Y150000D01*
X225000Y142500D01*
X225000Y135000D01*
X222080Y132080D01*
X213360Y132080D01*
X411480Y50800D02*
X418300Y50800D01*
X427500Y60000D01*
X427500Y202500D01*
X420000Y210000D01*
X285000Y210000D01*
X277500Y217500D01*
X277500Y345000D01*
X277060Y345440D01*
X269240Y345440D01*
X254000Y472440D02*
X261440Y465000D01*
X262500Y465000D01*
X270000Y457500D01*
X270000Y397500D01*
X255000Y382500D01*
X255000Y345440D01*
X243840Y345440D01*
X690880Y332440D02*
X684940Y332440D01*
X682500Y330000D01*
X652500Y330000D01*
X645000Y322500D01*
X645000Y318750D01*
X641250Y315000D01*
X337500Y315000D01*
X330000Y322500D01*
X330000Y345000D01*
X329560Y345440D01*
X320040Y345440D01*
X76340Y406400D02*
X76340Y398840D01*
X67500Y390000D01*
X60000Y390000D01*
X52500Y382500D01*
X52500Y210000D01*
X40640Y198140D01*
X40640Y193040D01*
X579120Y218440D02*
X570940Y218440D01*
X570000Y217500D01*
X570000Y67500D01*
X562500Y60000D01*
X555000Y60000D01*
X551480Y56480D01*
X551480Y50800D01*
X254000Y406400D02*
X247900Y412500D01*
X247500Y412500D01*
X240000Y420000D01*
X41250Y420000D01*
X37500Y416250D01*
X37500Y406400D01*
X25540Y406400D01*
X248360Y132080D02*
X248360Y120860D01*
X247500Y120000D01*
X97500Y120000D01*
X90000Y112500D01*
X90000Y82500D01*
X87320Y79820D01*
X87320Y76200D01*
X142240Y193040D02*
X142240Y202240D01*
X142240Y202760D01*
X135000Y210000D01*
X112500Y210000D01*
X105000Y217500D01*
X105000Y356250D01*
X97500Y363750D01*
X97500Y397500D01*
X101740Y401740D01*
X101740Y406400D01*
G36*
X46078Y203578D02*
X46078Y203578D01*
X45409Y192746D01*
X37637Y196756D01*
X46078Y203578D01*
D02*
G37*
X45409Y192746D01*
X37637Y196756D01*
X46078Y203578D01*
G36*
X142240Y201088D02*
X142240Y201088D01*
X146085Y195877D01*
X138395Y195877D01*
X142240Y201088D01*
D02*
G37*
X146085Y195877D01*
X138395Y195877D01*
X142240Y201088D01*
G36*
X238750Y203750D02*
X238750Y203750D01*
X246963Y196656D01*
X239064Y192902D01*
X238750Y203750D01*
D02*
G37*
X246963Y196656D01*
X239064Y192902D01*
X238750Y203750D01*
G36*
X329898Y193040D02*
X329898Y193040D01*
X322356Y188861D01*
X322356Y197219D01*
X329898Y193040D01*
D02*
G37*
X322356Y188861D01*
X322356Y197219D01*
X329898Y193040D01*
G36*
X45000Y394697D02*
X45000Y394697D01*
X44896Y406346D01*
X54464Y401490D01*
X45000Y394697D01*
D02*
G37*
X44896Y406346D01*
X54464Y401490D01*
X45000Y394697D01*
G36*
X36240Y406400D02*
X36240Y406400D01*
X28491Y401618D01*
X28491Y411182D01*
X36240Y406400D01*
D02*
G37*
X28491Y401618D01*
X28491Y411182D01*
X36240Y406400D01*
G36*
X71644Y394144D02*
X71644Y394144D01*
X70334Y405720D01*
X80354Y401881D01*
X71644Y394144D01*
D02*
G37*
X70334Y405720D01*
X80354Y401881D01*
X71644Y394144D01*
G36*
X120554Y399814D02*
X120554Y399814D01*
X121114Y406878D01*
X127618Y400375D01*
X120554Y399814D01*
D02*
G37*
X121114Y406878D01*
X127618Y400375D01*
X120554Y399814D01*
G36*
X97910Y397910D02*
X97910Y397910D01*
X95935Y404716D01*
X104319Y400934D01*
X97910Y397910D01*
D02*
G37*
X95935Y404716D01*
X104319Y400934D01*
X97910Y397910D01*
G36*
X253698Y345440D02*
X253698Y345440D01*
X246156Y341261D01*
X246156Y349619D01*
X253698Y345440D01*
D02*
G37*
X246156Y341261D01*
X246156Y349619D01*
X253698Y345440D01*
G36*
X277285Y345215D02*
X277285Y345215D01*
X271968Y341517D01*
X272183Y349204D01*
X277285Y345215D01*
D02*
G37*
X271968Y341517D01*
X272183Y349204D01*
X277285Y345215D01*
G36*
X328088Y345440D02*
X328088Y345440D01*
X322877Y341595D01*
X322877Y349285D01*
X328088Y345440D01*
D02*
G37*
X322877Y341595D01*
X322877Y349285D01*
X328088Y345440D01*
G36*
X539575Y90425D02*
X539575Y90425D01*
X550803Y91818D01*
X547606Y82456D01*
X539575Y90425D01*
D02*
G37*
X550803Y91818D01*
X547606Y82456D01*
X539575Y90425D01*
G36*
X399438Y90000D02*
X399438Y90000D01*
X410610Y91791D01*
X407747Y82321D01*
X399438Y90000D01*
D02*
G37*
X410610Y91791D01*
X407747Y82321D01*
X399438Y90000D01*
G36*
X260586Y465854D02*
X260586Y465854D01*
X253522Y466415D01*
X260025Y472918D01*
X260586Y465854D01*
D02*
G37*
X253522Y466415D01*
X260025Y472918D01*
X260586Y465854D01*
G36*
X554153Y59153D02*
X554153Y59153D01*
X556611Y52780D01*
X548451Y55391D01*
X554153Y59153D01*
D02*
G37*
X556611Y52780D01*
X548451Y55391D01*
X554153Y59153D01*
G36*
X423106Y55606D02*
X423106Y55606D01*
X415592Y47147D01*
X411813Y56290D01*
X423106Y55606D01*
D02*
G37*
X415592Y47147D01*
X411813Y56290D01*
X423106Y55606D01*
G36*
X600000Y199205D02*
X600000Y199205D01*
X599860Y187892D01*
X591017Y192327D01*
X600000Y199205D01*
D02*
G37*
X599860Y187892D01*
X591017Y192327D01*
X600000Y199205D01*
G36*
X247533Y412500D02*
X247533Y412500D01*
X254403Y412006D01*
X248428Y405670D01*
X247533Y412500D01*
D02*
G37*
X254403Y412006D01*
X248428Y405670D01*
X247533Y412500D01*
G36*
X225221Y397721D02*
X225221Y397721D01*
X222892Y404414D01*
X231462Y401077D01*
X225221Y397721D01*
D02*
G37*
X222892Y404414D01*
X231462Y401077D01*
X225221Y397721D01*
G36*
X678539Y330000D02*
X678539Y330000D01*
X687562Y336826D01*
X689480Y327121D01*
X678539Y330000D01*
D02*
G37*
X687562Y336826D01*
X689480Y327121D01*
X678539Y330000D01*
G36*
X90000Y88537D02*
X90000Y88537D01*
X92705Y77522D01*
X82969Y79637D01*
X90000Y88537D01*
D02*
G37*
X92705Y77522D01*
X82969Y79637D01*
X90000Y88537D01*
G36*
X203049Y134451D02*
X203049Y134451D01*
X211626Y137300D01*
X209521Y128142D01*
X203049Y134451D01*
D02*
G37*
X211626Y137300D01*
X209521Y128142D01*
X203049Y134451D01*
G36*
X223799Y133799D02*
X223799Y133799D01*
X216945Y127909D01*
X215418Y137181D01*
X223799Y133799D01*
D02*
G37*
X216945Y127909D01*
X215418Y137181D01*
X223799Y133799D01*
G36*
X248360Y121500D02*
X248360Y121500D01*
X243662Y129221D01*
X253058Y129221D01*
X248360Y121500D01*
D02*
G37*
X243662Y129221D01*
X253058Y129221D01*
X248360Y121500D01*
G36*
X532414Y210086D02*
X532414Y210086D01*
X525785Y215063D01*
X532542Y218374D01*
X532414Y210086D01*
D02*
G37*
X525785Y215063D01*
X532542Y218374D01*
X532414Y210086D01*
G36*
X579120Y285337D02*
X579120Y285337D01*
X575357Y292723D01*
X582883Y292723D01*
X579120Y285337D01*
D02*
G37*
X575357Y292723D01*
X582883Y292723D01*
X579120Y285337D01*
G36*
X571627Y218440D02*
X571627Y218440D01*
X576740Y221928D01*
X576740Y214952D01*
X571627Y218440D01*
D02*
G37*
X576740Y221928D01*
X576740Y214952D01*
X571627Y218440D01*
G54D13*
X772160Y289560D02*
X765000Y296720D01*
X765000Y300000D01*
X675000Y300000D01*
X667500Y292500D01*
X667500Y60000D01*
X660000Y52500D01*
X644620Y52500D01*
X640080Y47960D01*
X741680Y50800D02*
X735880Y45000D01*
X711920Y45000D01*
X706120Y50800D01*
X764867Y215811D02*
X767080Y213598D01*
X772160Y264160D02*
X769709Y261709D01*
X762654Y261709D01*
X749211Y248266D01*
X749211Y229254D01*
X762654Y215811D01*
X767080Y213598D02*
X767080Y50800D01*
G54D14*
X629920Y335280D02*
X630000Y335280D01*
X630000Y405000D01*
X622500Y412500D01*
X613660Y412500D01*
X609600Y416560D01*
X609600Y416560D02*
X772160Y416560D01*
G36*
X757131Y416560D02*
X757131Y416560D01*
X770530Y421233D01*
X770530Y411887D01*
X757131Y416560D01*
D02*
G37*
X770530Y421233D01*
X770530Y411887D01*
X757131Y416560D01*
G36*
X622080Y412500D02*
X622080Y412500D01*
X609355Y413526D01*
X611188Y419157D01*
X622080Y412500D01*
D02*
G37*
X609355Y413526D01*
X611188Y419157D01*
X622080Y412500D01*
G36*
X622724Y416560D02*
X622724Y416560D01*
X610306Y413599D01*
X610306Y419521D01*
X622724Y416560D01*
D02*
G37*
X610306Y413599D01*
X610306Y419521D01*
X622724Y416560D01*
G36*
X630000Y347860D02*
X630000Y347860D01*
X632373Y335761D01*
X627473Y335792D01*
X630000Y347860D01*
D02*
G37*
X632373Y335761D01*
X627473Y335792D01*
X630000Y347860D01*
G54D15*
X-2540Y-2540D02*
X-2540Y47968D01*
X-2540Y-2540D02*
X77968Y-2540D01*
X802540Y-2540D02*
X722032Y-2540D01*
X802540Y-2540D02*
X802540Y47968D01*
X802540Y502540D02*
X802540Y452032D01*
X802540Y502540D02*
X722032Y502540D01*
X-2540Y502540D02*
X77968Y502540D01*
X-2540Y502540D02*
X-2540Y452032D01*
X-52540Y-2540D02*
X-152540Y-2540D01*
X-102540Y-52540D02*
X-102540Y47460D01*
X-140040Y-2540D02*
G75*
D01*
G02X-140040Y-2540I37500J0*
G01*
X852540Y-2540D02*
X952540Y-2540D01*
X902540Y-52540D02*
X902540Y47460D01*
X865040Y-2540D02*
G75*
D01*
G02X865040Y-2540I37500J0*
G01*
X890040Y-2540D02*
G75*
D01*
G02X890040Y-2540I12500J0*
G01*
X-52540Y502540D02*
X-152540Y502540D01*
X-102540Y452540D02*
X-102540Y552540D01*
X-140040Y502540D02*
G75*
D01*
G02X-140040Y502540I37500J0*
G01*
X-127540Y502540D02*
G75*
D01*
G02X-127540Y502540I25000J0*
G01*
X-115040Y502540D02*
G75*
D01*
G02X-115040Y502540I12500J0*
G01*
G54D16*
X50940Y406400D03*
X76340Y406400D03*
X127140Y406400D03*
X101740Y406400D03*
X101600Y472440D03*
X76200Y472440D03*
X50800Y472440D03*
X152400Y472440D03*
X127000Y472440D03*
X177800Y472440D03*
X228600Y472440D03*
X203200Y472440D03*
X254000Y472440D03*
X228600Y406400D03*
X609600Y416560D03*
X91440Y152400D03*
X66040Y152400D03*
X116840Y152400D03*
G54D17*
X25540Y406400D03*
X25400Y472440D03*
X254000Y406400D03*
X609600Y391160D03*
X40640Y152400D03*
G54D18*
X22895Y403755D02*
X28185Y403755D01*
X28185Y409045D01*
X22895Y409045D01*
X22895Y403755D01*D02*
X22755Y469795D02*
X28045Y469795D01*
X28045Y475085D01*
X22755Y475085D01*
X22755Y469795D01*D02*
X251355Y403755D02*
X256645Y403755D01*
X256645Y409045D01*
X251355Y409045D01*
X251355Y403755D01*D02*
X606955Y388515D02*
X612245Y388515D01*
X612245Y393805D01*
X606955Y393805D01*
X606955Y388515D01*D02*
X37995Y149755D02*
X43285Y149755D01*
X43285Y155045D01*
X37995Y155045D01*
X37995Y149755D01*D02*
G54D19*
X177800Y40640D03*
G54D20*
X355600Y40640D03*
G54D21*
X772160Y289560D03*
X772160Y238760D03*
X772160Y264160D03*
X772160Y391160D03*
X772160Y416560D03*
X772160Y441960D03*
G54D22*
X629920Y335280D03*
X248360Y132080D03*
X213360Y132080D03*
X711200Y207080D03*
X710700Y132080D03*
X690880Y332440D03*
X690880Y472440D03*
X357840Y447040D03*
X497840Y447040D03*
X640080Y47960D03*
X640080Y187960D03*
X594360Y47960D03*
X594360Y187960D03*
X462280Y134320D03*
X462280Y274320D03*
X411480Y50800D03*
X551480Y50800D03*
X411480Y86360D03*
X551480Y86360D03*
G54D23*
X528320Y335280D03*
G54D24*
X528320Y294640D03*
X553720Y218440D03*
X579120Y218440D03*
X553720Y294640D03*
X579120Y294640D03*
X528320Y218440D03*
G54D25*
X680720Y50800D03*
X706120Y50800D03*
X741680Y50800D03*
X767080Y50800D03*
G54D26*
X112500Y367500D03*
G54D27*
X396240Y345440D03*
X370840Y345440D03*
X345440Y345440D03*
X320040Y345440D03*
X294640Y345440D03*
X269240Y345440D03*
X243840Y345440D03*
X218440Y345440D03*
X193040Y345440D03*
X167640Y345440D03*
X142240Y345440D03*
X116840Y345440D03*
X91440Y345440D03*
X66040Y345440D03*
X40640Y345440D03*
X396240Y193040D03*
X370840Y193040D03*
X345440Y193040D03*
X320040Y193040D03*
X294640Y193040D03*
X269240Y193040D03*
X243840Y193040D03*
X218440Y193040D03*
X193040Y193040D03*
X167640Y193040D03*
X142240Y193040D03*
X116840Y193040D03*
X91440Y193040D03*
X66040Y193040D03*
X40640Y193040D03*

M02*
