G04 Generated by Ultiboard 14.0 *
%FSLAX34Y34*%
%MOMM*%

%ADD10C,0.0001*%
%ADD11C,0.0010*%
%ADD12C,0.4000*%
%ADD13C,1.0000*%
%ADD14C,2.0000*%
%ADD15C,0.1270*%
%ADD16C,1.6088*%
%ADD17R,0.5291X0.5291*%
%ADD18C,0.9949*%
%ADD19C,2.6500*%
%ADD20R,2.6500X2.6500*%
%ADD21C,1.9898*%
%ADD22C,1.5000*%
%ADD23R,1.5000X1.5000*%
%ADD24C,1.2446*%
%ADD25R,1.2446X1.2446*%
%ADD26C,1.5366*%
%ADD27C,1.0000*%
%ADD28C,1.3556*%


G04 ColorRGB 00FF00 for the following layer *
%LNCopper Top*%
%LPD*%
G54D10*
G54D11*
G36*
X109320Y34200D02*
X109320Y34200D01*
X109320Y24200D01*
X125320Y24200D01*
X125320Y34200D01*
X109320Y34200D01*
D02*
G37*
X109320Y24200D01*
X125320Y24200D01*
X125320Y34200D01*
X109320Y34200D01*
G36*
X82320Y68200D02*
X82320Y68200D01*
X92320Y68200D01*
X92320Y84200D01*
X82320Y84200D01*
X82320Y68200D01*
D02*
G37*
X92320Y68200D01*
X92320Y84200D01*
X82320Y84200D01*
X82320Y68200D01*
G36*
X142320Y68200D02*
X142320Y68200D01*
X152320Y68200D01*
X152320Y84200D01*
X142320Y84200D01*
X142320Y68200D01*
D02*
G37*
X152320Y68200D01*
X152320Y84200D01*
X142320Y84200D01*
X142320Y68200D01*
G54D12*
X320040Y345440D02*
X320040Y350040D01*
X330000Y360000D01*
X367500Y360000D01*
X375000Y367500D01*
X375000Y457500D01*
X367500Y465000D01*
X307500Y465000D01*
X300000Y457500D01*
X300000Y420000D01*
X292500Y412500D01*
X260100Y412500D01*
X254000Y406400D01*
X25400Y472440D02*
X25400Y467900D01*
X22500Y465000D01*
X22500Y412500D01*
X25540Y409460D01*
X25540Y406400D01*
X690880Y472440D02*
X683440Y465000D01*
X682500Y465000D01*
X675000Y457500D01*
X502500Y457500D01*
X502500Y447040D01*
X497840Y447040D01*
X370840Y193040D02*
X370840Y199160D01*
X360000Y210000D01*
X337500Y210000D01*
X330000Y217500D01*
X330000Y345000D01*
X329560Y345440D01*
X320040Y345440D01*
X87320Y76200D02*
X87320Y82500D01*
X60000Y82500D01*
X52500Y90000D01*
X52500Y150000D01*
X50100Y152400D01*
X40640Y152400D01*
X772160Y238760D02*
X758740Y238760D01*
X757500Y240000D01*
X540000Y240000D01*
X532500Y247500D01*
X532500Y285000D01*
X528320Y289180D01*
X528320Y294640D01*
X152400Y472440D02*
X152400Y467400D01*
X150000Y465000D01*
X150000Y393750D01*
X138750Y382500D01*
X135000Y382500D01*
X127500Y375000D01*
X127500Y345440D01*
X116840Y345440D01*
X76200Y472440D02*
X76200Y466200D01*
X75000Y465000D01*
X75000Y412500D01*
X76340Y411160D01*
X76340Y406400D01*
X218440Y193040D02*
X212900Y187500D01*
X210000Y187500D01*
X210000Y165000D01*
X202500Y157500D01*
X127500Y157500D01*
X122400Y152400D01*
X116840Y152400D01*
X228600Y472440D02*
X228600Y468600D01*
X210000Y450000D01*
X210000Y345440D01*
X218440Y345440D01*
X112500Y367500D02*
X105000Y367500D01*
X105000Y333750D01*
X101250Y330000D01*
X52500Y330000D01*
X45000Y337500D01*
X45000Y341080D01*
X40640Y345440D01*
X370840Y193040D02*
X367500Y189700D01*
X367500Y150000D01*
X360000Y142500D01*
X248360Y142500D01*
X248360Y132080D01*
X177800Y40640D02*
X169360Y40640D01*
X165000Y45000D01*
X157500Y45000D01*
X150000Y52500D01*
X150000Y76200D01*
X147320Y76200D01*
X177800Y472440D02*
X172500Y467140D01*
X172500Y390000D01*
X165000Y382500D01*
X157500Y382500D01*
X150000Y375000D01*
X150000Y345440D01*
X142240Y345440D01*
X127000Y472440D02*
X120000Y479440D01*
X120000Y480000D01*
X112500Y487500D01*
X15000Y487500D01*
X7500Y480000D01*
X7500Y397500D01*
X15000Y390000D01*
X52500Y390000D01*
X60000Y382500D01*
X60000Y351480D01*
X66040Y345440D01*
X167640Y193040D02*
X167640Y190140D01*
X157500Y180000D01*
X82500Y180000D01*
X75000Y172500D01*
X75000Y157500D01*
X71140Y157500D01*
X66040Y152400D01*
X203200Y472440D02*
X195760Y465000D01*
X195000Y465000D01*
X195000Y352500D01*
X193040Y350540D01*
X193040Y345440D01*
X772160Y441960D02*
X765000Y449120D01*
X765000Y457500D01*
X757500Y465000D01*
X697500Y465000D01*
X697500Y465820D01*
X690880Y472440D01*
X528320Y294640D02*
X528320Y288320D01*
X525000Y285000D01*
X465000Y285000D01*
X465000Y274320D01*
X462280Y274320D01*
X772160Y391160D02*
X765000Y384000D01*
X765000Y345000D01*
X757500Y337500D01*
X695940Y337500D01*
X690880Y332440D01*
X101600Y472440D02*
X101600Y468400D01*
X112500Y457500D01*
X135000Y457500D01*
X142500Y450000D01*
X142500Y401250D01*
X131250Y390000D01*
X105000Y390000D01*
X97500Y382500D01*
X97500Y351500D01*
X91440Y345440D01*
X50800Y472440D02*
X45000Y466640D01*
X45000Y412340D01*
X50940Y406400D01*
X193040Y193040D02*
X187500Y187500D01*
X187500Y172500D01*
X180000Y165000D01*
X91440Y165000D01*
X91440Y152400D01*
X357840Y447040D02*
X353300Y442500D01*
X315000Y442500D01*
X307500Y435000D01*
X127500Y322500D02*
X127500Y195000D01*
X125540Y193040D01*
X116840Y193040D01*
G36*
X124888Y193040D02*
X124888Y193040D01*
X119677Y189195D01*
X119677Y196885D01*
X124888Y193040D01*
D02*
G37*
X119677Y189195D01*
X119677Y196885D01*
X124888Y193040D01*
G36*
X160831Y183331D02*
X160831Y183331D01*
X162954Y193975D01*
X170115Y188953D01*
X160831Y183331D01*
D02*
G37*
X162954Y193975D01*
X170115Y188953D01*
X160831Y183331D01*
G36*
X187500Y182556D02*
X187500Y182556D01*
X188274Y193381D01*
X196007Y189295D01*
X187500Y182556D01*
D02*
G37*
X188274Y193381D01*
X196007Y189295D01*
X187500Y182556D01*
G36*
X210286Y187500D02*
X210286Y187500D01*
X214176Y195195D01*
X218873Y188282D01*
X210286Y187500D01*
D02*
G37*
X214176Y195195D01*
X218873Y188282D01*
X210286Y187500D01*
G36*
X366093Y203907D02*
X366093Y203907D01*
X374077Y196555D01*
X366062Y193054D01*
X366093Y203907D01*
D02*
G37*
X374077Y196555D01*
X366062Y193054D01*
X366093Y203907D01*
G36*
X367500Y181662D02*
X367500Y181662D01*
X366102Y192424D01*
X374494Y189961D01*
X367500Y181662D01*
D02*
G37*
X366102Y192424D01*
X374494Y189961D01*
X367500Y181662D01*
G36*
X45000Y418103D02*
X45000Y418103D01*
X54464Y411310D01*
X44896Y406454D01*
X45000Y418103D01*
D02*
G37*
X54464Y411310D01*
X44896Y406454D01*
X45000Y418103D01*
G36*
X22500Y418731D02*
X22500Y418731D01*
X29838Y410021D01*
X20051Y407608D01*
X22500Y418731D01*
D02*
G37*
X29838Y410021D01*
X20051Y407608D01*
X22500Y418731D01*
G36*
X75000Y419456D02*
X75000Y419456D01*
X81393Y409717D01*
X70719Y408621D01*
X75000Y419456D01*
D02*
G37*
X81393Y409717D01*
X70719Y408621D01*
X75000Y419456D01*
G36*
X45000Y338675D02*
X45000Y338675D01*
X38945Y340973D01*
X45408Y345139D01*
X45000Y338675D01*
D02*
G37*
X38945Y340973D01*
X45408Y345139D01*
X45000Y338675D01*
G36*
X60349Y351131D02*
X60349Y351131D01*
X66753Y350165D01*
X61315Y344727D01*
X60349Y351131D01*
D02*
G37*
X66753Y350165D01*
X61315Y344727D01*
X60349Y351131D01*
G36*
X97131Y351131D02*
X97131Y351131D01*
X96165Y344727D01*
X90727Y350165D01*
X97131Y351131D01*
D02*
G37*
X96165Y344727D01*
X90727Y350165D01*
X97131Y351131D01*
G36*
X126698Y345440D02*
X126698Y345440D01*
X119156Y341261D01*
X119156Y349619D01*
X126698Y345440D01*
D02*
G37*
X119156Y341261D01*
X119156Y349619D01*
X126698Y345440D01*
G36*
X108638Y461362D02*
X108638Y461362D01*
X98564Y467214D01*
X107621Y472967D01*
X108638Y461362D01*
D02*
G37*
X98564Y467214D01*
X107621Y472967D01*
X108638Y461362D01*
G36*
X22500Y460076D02*
X22500Y460076D01*
X19925Y471170D01*
X29739Y468868D01*
X22500Y460076D01*
D02*
G37*
X19925Y471170D01*
X29739Y468868D01*
X22500Y460076D01*
G36*
X195000Y357135D02*
X195000Y357135D01*
X197671Y346616D01*
X189045Y348062D01*
X195000Y357135D01*
D02*
G37*
X197671Y346616D01*
X189045Y348062D01*
X195000Y357135D01*
G36*
X75000Y459371D02*
X75000Y459371D01*
X70603Y470159D01*
X81288Y469178D01*
X75000Y459371D01*
D02*
G37*
X70603Y470159D01*
X81288Y469178D01*
X75000Y459371D01*
G36*
X45000Y460667D02*
X45000Y460667D01*
X44757Y472314D01*
X54383Y467572D01*
X45000Y460667D01*
D02*
G37*
X44757Y472314D01*
X54383Y467572D01*
X45000Y460667D01*
G36*
X210392Y345440D02*
X210392Y345440D01*
X215603Y349285D01*
X215603Y341595D01*
X210392Y345440D01*
D02*
G37*
X215603Y349285D01*
X215603Y341595D01*
X210392Y345440D01*
G36*
X150000Y459537D02*
X150000Y459537D01*
X146616Y470684D01*
X157166Y468722D01*
X150000Y459537D01*
D02*
G37*
X146616Y470684D01*
X157166Y468722D01*
X150000Y459537D01*
G36*
X120414Y479026D02*
X120414Y479026D01*
X127478Y478465D01*
X120975Y471962D01*
X120414Y479026D01*
D02*
G37*
X127478Y478465D01*
X120975Y471962D01*
X120414Y479026D01*
G36*
X172500Y460434D02*
X172500Y460434D01*
X171768Y472060D01*
X181584Y467727D01*
X172500Y460434D01*
D02*
G37*
X171768Y472060D01*
X181584Y467727D01*
X172500Y460434D01*
G36*
X325803Y355803D02*
X325803Y355803D01*
X324797Y344997D01*
X317154Y349248D01*
X325803Y355803D01*
D02*
G37*
X324797Y344997D01*
X317154Y349248D01*
X325803Y355803D01*
G36*
X328088Y345440D02*
X328088Y345440D01*
X322877Y341595D01*
X322877Y349285D01*
X328088Y345440D01*
D02*
G37*
X322877Y341595D01*
X322877Y349285D01*
X328088Y345440D01*
G36*
X765000Y455174D02*
X765000Y455174D01*
X776088Y448871D01*
X764225Y442443D01*
X765000Y455174D01*
D02*
G37*
X776088Y448871D01*
X764225Y442443D01*
X765000Y455174D01*
G36*
X765000Y377946D02*
X765000Y377946D01*
X764225Y390677D01*
X776088Y384249D01*
X765000Y377946D01*
D02*
G37*
X764225Y390677D01*
X776088Y384249D01*
X765000Y377946D01*
G36*
X221441Y461441D02*
X221441Y461441D01*
X222585Y473034D01*
X231578Y467180D01*
X221441Y461441D01*
D02*
G37*
X222585Y473034D01*
X231578Y467180D01*
X221441Y461441D01*
G36*
X196614Y465854D02*
X196614Y465854D01*
X197175Y472918D01*
X203678Y466415D01*
X196614Y465854D01*
D02*
G37*
X197175Y472918D01*
X203678Y466415D01*
X196614Y465854D01*
G36*
X465000Y284544D02*
X465000Y284544D01*
X467556Y275875D01*
X458475Y278291D01*
X465000Y284544D01*
D02*
G37*
X467556Y275875D01*
X458475Y278291D01*
X465000Y284544D01*
G36*
X502500Y456538D02*
X502500Y456538D01*
X503317Y447537D01*
X494881Y451676D01*
X502500Y456538D01*
D02*
G37*
X503317Y447537D01*
X494881Y451676D01*
X502500Y456538D01*
G36*
X265139Y412500D02*
X265139Y412500D01*
X258602Y403174D01*
X253761Y412015D01*
X265139Y412500D01*
D02*
G37*
X258602Y403174D01*
X253761Y412015D01*
X265139Y412500D01*
G36*
X346108Y442500D02*
X346108Y442500D01*
X353812Y450785D01*
X357383Y441559D01*
X346108Y442500D01*
D02*
G37*
X353812Y450785D01*
X357383Y441559D01*
X346108Y442500D01*
G36*
X684679Y466239D02*
X684679Y466239D01*
X685412Y473030D01*
X691470Y466972D01*
X684679Y466239D01*
D02*
G37*
X685412Y473030D01*
X691470Y466972D01*
X684679Y466239D01*
G36*
X697081Y466239D02*
X697081Y466239D01*
X690290Y466972D01*
X696348Y473030D01*
X697081Y466239D01*
D02*
G37*
X690290Y466972D01*
X696348Y473030D01*
X697081Y466239D01*
G36*
X702398Y337500D02*
X702398Y337500D01*
X695071Y328878D01*
X691092Y337936D01*
X702398Y337500D01*
D02*
G37*
X695071Y328878D01*
X691092Y337936D01*
X702398Y337500D01*
G36*
X150000Y63863D02*
X150000Y63863D01*
X142969Y72763D01*
X152705Y74878D01*
X150000Y63863D01*
D02*
G37*
X142969Y72763D01*
X152705Y74878D01*
X150000Y63863D01*
G36*
X76379Y82500D02*
X76379Y82500D01*
X87695Y81732D01*
X82724Y73098D01*
X76379Y82500D01*
D02*
G37*
X87695Y81732D01*
X82724Y73098D01*
X76379Y82500D01*
G36*
X126978Y156978D02*
X126978Y156978D01*
X121921Y149127D01*
X117745Y158376D01*
X126978Y156978D01*
D02*
G37*
X121921Y149127D01*
X117745Y158376D01*
X126978Y156978D01*
G36*
X49530Y152400D02*
X49530Y152400D01*
X44193Y148045D01*
X44193Y156755D01*
X49530Y152400D01*
D02*
G37*
X44193Y148045D01*
X44193Y156755D01*
X49530Y152400D01*
G36*
X73834Y157500D02*
X73834Y157500D01*
X71840Y150700D01*
X66804Y158396D01*
X73834Y157500D01*
D02*
G37*
X71840Y150700D01*
X66804Y158396D01*
X73834Y157500D01*
G36*
X159996Y45000D02*
X159996Y45000D01*
X173206Y50909D01*
X168981Y33655D01*
X159996Y45000D01*
D02*
G37*
X173206Y50909D01*
X168981Y33655D01*
X159996Y45000D01*
G36*
X91440Y163524D02*
X91440Y163524D01*
X96514Y155684D01*
X86366Y155684D01*
X91440Y163524D01*
D02*
G37*
X96514Y155684D01*
X86366Y155684D01*
X91440Y163524D01*
G36*
X248360Y140850D02*
X248360Y140850D01*
X252644Y135529D01*
X244076Y135529D01*
X248360Y140850D01*
D02*
G37*
X252644Y135529D01*
X244076Y135529D01*
X248360Y140850D01*
G36*
X531575Y285925D02*
X531575Y285925D01*
X525466Y291528D01*
X532516Y294161D01*
X531575Y285925D01*
D02*
G37*
X525466Y291528D01*
X532516Y294161D01*
X531575Y285925D01*
G36*
X525710Y285710D02*
X525710Y285710D01*
X524171Y293855D01*
X531394Y291744D01*
X525710Y285710D01*
D02*
G37*
X524171Y293855D01*
X531394Y291744D01*
X525710Y285710D01*
G36*
X759131Y238760D02*
X759131Y238760D01*
X767310Y245058D01*
X767310Y232462D01*
X759131Y238760D01*
D02*
G37*
X767310Y245058D01*
X767310Y232462D01*
X759131Y238760D01*
X135000Y330000D02*
X127500Y322500D01*
X307500Y435000D02*
X307500Y333750D01*
X303750Y330000D01*
X135000Y330000D01*
G54D13*
X396240Y193040D02*
X390700Y187500D01*
X390000Y187500D01*
X390000Y60000D01*
X382500Y52500D01*
X367460Y52500D01*
X355600Y40640D01*
X528320Y335280D02*
X528320Y330000D01*
X517500Y330000D01*
X510000Y322500D01*
X412500Y322500D01*
X405000Y315000D01*
X405000Y195000D01*
X403040Y193040D01*
X396240Y193040D01*
X609600Y391160D02*
X609600Y384600D01*
X607500Y382500D01*
X607500Y352500D01*
X600000Y345000D01*
X532500Y345000D01*
X532500Y335280D01*
X528320Y335280D01*
G36*
X390402Y187500D02*
X390402Y187500D01*
X394761Y194027D01*
X397149Y191512D01*
X390402Y187500D01*
D02*
G37*
X394761Y194027D01*
X397149Y191512D01*
X390402Y187500D01*
G36*
X404203Y194203D02*
X404203Y194203D01*
X396879Y191381D01*
X396378Y194813D01*
X404203Y194203D01*
D02*
G37*
X396879Y191381D01*
X396378Y194813D01*
X404203Y194203D01*
G36*
X365867Y50907D02*
X365867Y50907D01*
X363715Y39154D01*
X354114Y48755D01*
X365867Y50907D01*
D02*
G37*
X363715Y39154D01*
X354114Y48755D01*
X365867Y50907D01*
G36*
X607517Y382517D02*
X607517Y382517D01*
X606985Y390996D01*
X611853Y389823D01*
X607517Y382517D01*
D02*
G37*
X606985Y390996D01*
X611853Y389823D01*
X607517Y382517D01*
G36*
X521318Y330000D02*
X521318Y330000D01*
X526308Y336764D01*
X529194Y332938D01*
X521318Y330000D01*
D02*
G37*
X526308Y336764D01*
X529194Y332938D01*
X521318Y330000D01*
G36*
X532500Y342990D02*
X532500Y342990D01*
X530766Y334764D01*
X526553Y337049D01*
X532500Y342990D01*
D02*
G37*
X530766Y334764D01*
X526553Y337049D01*
X532500Y342990D01*
G54D14*
X710700Y132080D02*
X710700Y135000D01*
X472500Y135000D01*
X471820Y134320D01*
X462280Y134320D01*
X680720Y50800D02*
X675000Y45080D01*
X675000Y45000D01*
X643040Y45000D01*
X640080Y47960D01*
X767080Y50800D02*
X772500Y56220D01*
X772500Y112500D01*
X765000Y120000D01*
X712500Y120000D01*
X712500Y132080D01*
X710700Y132080D01*
X711200Y207080D02*
X711200Y195000D01*
X645000Y195000D01*
X645000Y187960D01*
X640080Y187960D01*
X640080Y47960D02*
X632960Y47960D01*
X630000Y45000D01*
X597320Y45000D01*
X594360Y47960D01*
G54D15*
X-2540Y-2540D02*
X-2540Y47968D01*
X-2540Y-2540D02*
X77968Y-2540D01*
X802540Y-2540D02*
X722032Y-2540D01*
X802540Y-2540D02*
X802540Y47968D01*
X802540Y502540D02*
X802540Y452032D01*
X802540Y502540D02*
X722032Y502540D01*
X-2540Y502540D02*
X77968Y502540D01*
X-2540Y502540D02*
X-2540Y452032D01*
X-52540Y-2540D02*
X-152540Y-2540D01*
X-102540Y-52540D02*
X-102540Y47460D01*
X-140040Y-2540D02*
G75*
D01*
G02X-140040Y-2540I37500J0*
G01*
X852540Y-2540D02*
X952540Y-2540D01*
X902540Y-52540D02*
X902540Y47460D01*
X865040Y-2540D02*
G75*
D01*
G02X865040Y-2540I37500J0*
G01*
X890040Y-2540D02*
G75*
D01*
G02X890040Y-2540I12500J0*
G01*
X-52540Y502540D02*
X-152540Y502540D01*
X-102540Y452540D02*
X-102540Y552540D01*
X-140040Y502540D02*
G75*
D01*
G02X-140040Y502540I37500J0*
G01*
X-127540Y502540D02*
G75*
D01*
G02X-127540Y502540I25000J0*
G01*
X-115040Y502540D02*
G75*
D01*
G02X-115040Y502540I12500J0*
G01*
G54D16*
X50940Y406400D03*
X76340Y406400D03*
X127140Y406400D03*
X101740Y406400D03*
X101600Y472440D03*
X76200Y472440D03*
X50800Y472440D03*
X152400Y472440D03*
X127000Y472440D03*
X177800Y472440D03*
X228600Y472440D03*
X203200Y472440D03*
X254000Y472440D03*
X228600Y406400D03*
X609600Y416560D03*
X91440Y152400D03*
X66040Y152400D03*
X116840Y152400D03*
G54D17*
X25540Y406400D03*
X25400Y472440D03*
X254000Y406400D03*
X609600Y391160D03*
X40640Y152400D03*
G54D18*
X22895Y403755D02*
X28185Y403755D01*
X28185Y409045D01*
X22895Y409045D01*
X22895Y403755D01*D02*
X22755Y469795D02*
X28045Y469795D01*
X28045Y475085D01*
X22755Y475085D01*
X22755Y469795D01*D02*
X251355Y403755D02*
X256645Y403755D01*
X256645Y409045D01*
X251355Y409045D01*
X251355Y403755D01*D02*
X606955Y388515D02*
X612245Y388515D01*
X612245Y393805D01*
X606955Y393805D01*
X606955Y388515D01*D02*
X37995Y149755D02*
X43285Y149755D01*
X43285Y155045D01*
X37995Y155045D01*
X37995Y149755D01*D02*
G54D19*
X177800Y40640D03*
G54D20*
X355600Y40640D03*
G54D21*
X772160Y289560D03*
X772160Y238760D03*
X772160Y264160D03*
X772160Y391160D03*
X772160Y416560D03*
X772160Y441960D03*
G54D22*
X629920Y335280D03*
X248360Y132080D03*
X711200Y207080D03*
X690880Y332440D03*
X357840Y447040D03*
X640080Y47960D03*
X594360Y47960D03*
X462280Y134320D03*
X551480Y50800D03*
X551480Y86360D03*
G54D23*
X528320Y335280D03*
X213360Y132080D03*
X710700Y132080D03*
X690880Y472440D03*
X497840Y447040D03*
X640080Y187960D03*
X594360Y187960D03*
X462280Y274320D03*
X411480Y50800D03*
X411480Y86360D03*
G54D24*
X528320Y294640D03*
X553720Y218440D03*
X579120Y218440D03*
X553720Y294640D03*
X579120Y294640D03*
G54D25*
X528320Y218440D03*
G54D26*
X680720Y50800D03*
X706120Y50800D03*
X741680Y50800D03*
X767080Y50800D03*
G54D27*
X112500Y367500D03*
G54D28*
X396240Y345440D03*
X370840Y345440D03*
X345440Y345440D03*
X320040Y345440D03*
X294640Y345440D03*
X269240Y345440D03*
X243840Y345440D03*
X218440Y345440D03*
X193040Y345440D03*
X167640Y345440D03*
X142240Y345440D03*
X116840Y345440D03*
X91440Y345440D03*
X66040Y345440D03*
X40640Y345440D03*
X396240Y193040D03*
X370840Y193040D03*
X345440Y193040D03*
X320040Y193040D03*
X294640Y193040D03*
X269240Y193040D03*
X243840Y193040D03*
X218440Y193040D03*
X193040Y193040D03*
X167640Y193040D03*
X142240Y193040D03*
X116840Y193040D03*
X91440Y193040D03*
X66040Y193040D03*
X40640Y193040D03*

M02*
