M48
METRIC,TZ
VER,1
FMAT,2
DETECT,ON
ATC,ON
T1C0.8890
T2C0.9949
T3C1.6000
T4C1.1854
T5C0.9000
T6C1.1810
T7C0.8000
T8C0.6000
T9C1.0000
%
T1
X50940Y406400
X76340
X127140
X101740
X101600Y472440
X76200
X50800
X152400
X127000
X177800
X228600
X203200
X254000
X228600Y406400
X609600Y416560
X528320Y294640
X553720Y218440
X579120
X553720Y294640
X579120
X528320Y218440
X91440Y152400
X66040
X116840
T2
X25540Y406400
X25400Y472440
X254000Y406400
X609600Y391160
X40640Y152400
T3
X177800Y40640
X355600
T4
X772160Y289560
Y238760
Y264160
Y391160
Y416560
Y441960
T5
X629920Y335280
X528320
X248360Y132080
X213360
X711200Y207080
X710700Y132080
X690880Y332440
Y472440
X357840Y447040
X497840
X640080Y47960
Y187960
X594360Y47960
Y187960
X462280Y134320
Y274320
X411480Y50800
X551480
X411480Y86360
X551480
T6
X680720Y50800
X706120
X741680
X767080
T7
X114320Y29200G85X120320Y29200
X87320Y73200G85X87320Y79200
X147320Y73200G85X147320Y79200
T8
X112500Y367500
T9
X396240Y345440
X370840
X345440
X320040
X294640
X269240
X243840
X218440
X193040
X167640
X142240
X116840
X91440
X66040
X40640
X396240Y193040
X370840
X345440
X320040
X294640
X269240
X243840
X218440
X193040
X167640
X142240
X116840
X91440
X66040
X40640
M30
