G04 Generated by Ultiboard 14.0 *
%FSLAX34Y34*%
%MOMM*%

%ADD11C,0.8890*%
%ADD12C,0.9949*%
%ADD13C,1.6000*%
%ADD14C,1.1854*%
%ADD15C,0.9000*%
%ADD16C,1.1810*%
%ADD17O,1.4000X0.8000*%
%ADD18O,0.8000X1.4000*%
%ADD19C,0.6000*%
%ADD20C,1.0000*%


G04 ColorRGB 000000 for the following layer *
%LNDrill-Copper Top-Copper Bottom*%
%LPD*%
G54D11*
X50940Y406400D03*
X76340Y406400D03*
X127140Y406400D03*
X101740Y406400D03*
X101600Y472440D03*
X76200Y472440D03*
X50800Y472440D03*
X152400Y472440D03*
X127000Y472440D03*
X177800Y472440D03*
X228600Y472440D03*
X203200Y472440D03*
X254000Y472440D03*
X228600Y406400D03*
X609600Y416560D03*
X528320Y294640D03*
X553720Y218440D03*
X579120Y218440D03*
X553720Y294640D03*
X579120Y294640D03*
X528320Y218440D03*
X91440Y152400D03*
X66040Y152400D03*
X116840Y152400D03*
G54D12*
X25540Y406400D03*
X25400Y472440D03*
X254000Y406400D03*
X609600Y391160D03*
X40640Y152400D03*
G54D13*
X177800Y40640D03*
X355600Y40640D03*
G54D14*
X772160Y289560D03*
X772160Y238760D03*
X772160Y264160D03*
X772160Y391160D03*
X772160Y416560D03*
X772160Y441960D03*
G54D15*
X629920Y335280D03*
X528320Y335280D03*
X248360Y132080D03*
X213360Y132080D03*
X711200Y207080D03*
X710700Y132080D03*
X690880Y332440D03*
X690880Y472440D03*
X357840Y447040D03*
X497840Y447040D03*
X640080Y47960D03*
X640080Y187960D03*
X594360Y47960D03*
X594360Y187960D03*
X462280Y134320D03*
X462280Y274320D03*
X411480Y50800D03*
X551480Y50800D03*
X411480Y86360D03*
X551480Y86360D03*
G54D16*
X680720Y50800D03*
X706120Y50800D03*
X741680Y50800D03*
X767080Y50800D03*
G54D17*
X117320Y29200D03*
G54D18*
X87320Y76200D03*
X147320Y76200D03*
G54D19*
X112500Y367500D03*
G54D20*
X396240Y345440D03*
X370840Y345440D03*
X345440Y345440D03*
X320040Y345440D03*
X294640Y345440D03*
X269240Y345440D03*
X243840Y345440D03*
X218440Y345440D03*
X193040Y345440D03*
X167640Y345440D03*
X142240Y345440D03*
X116840Y345440D03*
X91440Y345440D03*
X66040Y345440D03*
X40640Y345440D03*
X396240Y193040D03*
X370840Y193040D03*
X345440Y193040D03*
X320040Y193040D03*
X294640Y193040D03*
X269240Y193040D03*
X243840Y193040D03*
X218440Y193040D03*
X193040Y193040D03*
X167640Y193040D03*
X142240Y193040D03*
X116840Y193040D03*
X91440Y193040D03*
X66040Y193040D03*
X40640Y193040D03*

M02*
