G04 Generated by Ultiboard 14.0 *
%FSLAX34Y34*%
%MOMM*%

%ADD11C,0.0100*%
%ADD12C,0.1000*%
%ADD13C,0.0010*%
%ADD14C,0.1270*%


G04 ColorRGB 000000 for the following layer *
%LNDrill Symbols-Copper Top-Copper Bottom*%
%LPD*%
G54D11*
X46495Y406400D02*
X55385Y406400D01*
X50940Y401955D02*
X50940Y410845D01*
X22022Y409918D02*
X29057Y402882D01*
X22022Y402882D02*
X29057Y409918D01*
X71895Y406400D02*
X80785Y406400D01*
X76340Y401955D02*
X76340Y410845D01*
X122695Y406400D02*
X131585Y406400D01*
X127140Y401955D02*
X127140Y410845D01*
X97295Y406400D02*
X106185Y406400D01*
X101740Y401955D02*
X101740Y410845D01*
X97155Y472440D02*
X106045Y472440D01*
X101600Y467995D02*
X101600Y476885D01*
X21882Y468922D02*
X28918Y475958D01*
X21882Y475958D02*
X28918Y468922D01*
X71755Y472440D02*
X80645Y472440D01*
X76200Y467995D02*
X76200Y476885D01*
X46355Y472440D02*
X55245Y472440D01*
X50800Y467995D02*
X50800Y476885D01*
X147955Y472440D02*
X156845Y472440D01*
X152400Y467995D02*
X152400Y476885D01*
X122555Y472440D02*
X131445Y472440D01*
X127000Y467995D02*
X127000Y476885D01*
X173355Y472440D02*
X182245Y472440D01*
X177800Y467995D02*
X177800Y476885D01*
X224155Y472440D02*
X233045Y472440D01*
X228600Y467995D02*
X228600Y476885D01*
X198755Y472440D02*
X207645Y472440D01*
X203200Y467995D02*
X203200Y476885D01*
X249555Y472440D02*
X258445Y472440D01*
X254000Y467995D02*
X254000Y476885D01*
X250482Y402882D02*
X257518Y409918D01*
X250482Y409918D02*
X257518Y402882D01*
X224155Y406400D02*
X233045Y406400D01*
X228600Y401955D02*
X228600Y410845D01*
X606082Y387642D02*
X613118Y394678D01*
X606082Y394678D02*
X613118Y387642D01*
X609600Y412115D02*
X609600Y421005D01*
X605155Y416560D02*
X614045Y416560D01*
X629920Y328916D02*
X636284Y335280D01*
X629920Y341644D01*
X623556Y335280D01*
X629920Y328916D01*
X528320Y328916D02*
X534684Y335280D01*
X528320Y341644D01*
X521956Y335280D01*
X528320Y328916D01*
X523875Y294640D02*
X532765Y294640D01*
X528320Y290195D02*
X528320Y299085D01*
X549275Y218440D02*
X558165Y218440D01*
X553720Y213995D02*
X553720Y222885D01*
X574675Y218440D02*
X583565Y218440D01*
X579120Y213995D02*
X579120Y222885D01*
X549275Y294640D02*
X558165Y294640D01*
X553720Y290195D02*
X553720Y299085D01*
X574675Y294640D02*
X583565Y294640D01*
X579120Y290195D02*
X579120Y299085D01*
X523875Y218440D02*
X532765Y218440D01*
X528320Y213995D02*
X528320Y222885D01*
X248360Y125716D02*
X254724Y132080D01*
X248360Y138444D01*
X241996Y132080D01*
X248360Y125716D01*
X213360Y125716D02*
X219724Y132080D01*
X213360Y138444D01*
X206996Y132080D01*
X213360Y125716D01*
X711200Y200716D02*
X717564Y207080D01*
X711200Y213444D01*
X704836Y207080D01*
X711200Y200716D01*
X710700Y125716D02*
X717064Y132080D01*
X710700Y138444D01*
X704336Y132080D01*
X710700Y125716D01*
X86995Y152400D02*
X95885Y152400D01*
X91440Y147955D02*
X91440Y156845D01*
X61595Y152400D02*
X70485Y152400D01*
X66040Y147955D02*
X66040Y156845D01*
X37122Y148882D02*
X44158Y155918D01*
X37122Y155918D02*
X44158Y148882D01*
X112395Y152400D02*
X121285Y152400D01*
X116840Y147955D02*
X116840Y156845D01*
X110320Y29200D02*
G75*
D01*
G02X110320Y29200I4000J0*
G01*
X112764Y28057D02*
X112764Y29771D01*
X113653Y30914D01*
X114542Y30914D01*
X115431Y29771D01*
X115431Y28057D01*
X112764Y28914D02*
X115431Y28914D01*
X114320Y29200D02*
X120320Y29200D01*
X83320Y73200D02*
G75*
D01*
G02X83320Y73200I4000J0*
G01*
X85764Y72057D02*
X85764Y73771D01*
X86653Y74914D01*
X87542Y74914D01*
X88431Y73771D01*
X88431Y72057D01*
X85764Y72914D02*
X88431Y72914D01*
X87320Y73200D02*
X87320Y79200D01*
X143320Y73200D02*
G75*
D01*
G02X143320Y73200I4000J0*
G01*
X145764Y72057D02*
X145764Y73771D01*
X146653Y74914D01*
X147542Y74914D01*
X148431Y73771D01*
X148431Y72057D01*
X145764Y72914D02*
X148431Y72914D01*
X147320Y73200D02*
X147320Y79200D01*
X109500Y364500D02*
X115500Y364500D01*
X115500Y370500D01*
X109500Y370500D01*
X109500Y364500D01*
X111333Y366643D02*
X111333Y367929D01*
X112000Y368786D01*
X112667Y368786D01*
X113333Y367929D01*
X113333Y366643D01*
X111333Y367286D02*
X113333Y367286D01*
X690880Y326076D02*
X697244Y332440D01*
X690880Y338804D01*
X684516Y332440D01*
X690880Y326076D01*
X690880Y466076D02*
X697244Y472440D01*
X690880Y478804D01*
X684516Y472440D01*
X690880Y466076D01*
X357840Y440676D02*
X364204Y447040D01*
X357840Y453404D01*
X351476Y447040D01*
X357840Y440676D01*
X497840Y440676D02*
X504204Y447040D01*
X497840Y453404D01*
X491476Y447040D01*
X497840Y440676D01*
X640080Y41596D02*
X646444Y47960D01*
X640080Y54324D01*
X633716Y47960D01*
X640080Y41596D01*
X640080Y181596D02*
X646444Y187960D01*
X640080Y194324D01*
X633716Y187960D01*
X640080Y181596D01*
X594360Y41596D02*
X600724Y47960D01*
X594360Y54324D01*
X587996Y47960D01*
X594360Y41596D01*
X594360Y181596D02*
X600724Y187960D01*
X594360Y194324D01*
X587996Y187960D01*
X594360Y181596D01*
X462280Y127956D02*
X468644Y134320D01*
X462280Y140684D01*
X455916Y134320D01*
X462280Y127956D01*
X462280Y267956D02*
X468644Y274320D01*
X462280Y280684D01*
X455916Y274320D01*
X462280Y267956D01*
X411480Y44436D02*
X417844Y50800D01*
X411480Y57164D01*
X405116Y50800D01*
X411480Y44436D01*
X551480Y44436D02*
X557844Y50800D01*
X551480Y57164D01*
X545116Y50800D01*
X551480Y44436D01*
X411480Y79996D02*
X417844Y86360D01*
X411480Y92724D01*
X405116Y86360D01*
X411480Y79996D01*
X551480Y79996D02*
X557844Y86360D01*
X551480Y92724D01*
X545116Y86360D01*
X551480Y79996D01*
X1099522Y196522D02*
X1106558Y203558D01*
X1099522Y203558D02*
X1106558Y196522D01*
X1103040Y234676D02*
X1109404Y241040D01*
X1103040Y247404D01*
X1096676Y241040D01*
X1103040Y234676D01*
X1098595Y282040D02*
X1107485Y282040D01*
X1103040Y277595D02*
X1103040Y286485D01*
X1101484Y321897D02*
X1101484Y323611D01*
X1102373Y324754D01*
X1103262Y324754D01*
X1104151Y323611D01*
X1104151Y321897D01*
X1101484Y322754D02*
X1104151Y322754D01*
X1099040Y323040D02*
G75*
D01*
G02X1099040Y323040I4000J0*
G01*
X1100040Y361040D02*
X1106040Y361040D01*
X1106040Y367040D01*
X1100040Y367040D01*
X1100040Y361040D01*
X1101873Y363183D02*
X1101873Y364469D01*
X1102540Y365326D01*
X1103207Y365326D01*
X1103873Y364469D01*
X1103873Y363183D01*
X1101873Y363826D02*
X1103873Y363826D01*
G54D12*
X169800Y40640D02*
G75*
D01*
G02X169800Y40640I8000J0*
G01*
X347600Y40640D02*
G75*
D01*
G02X347600Y40640I8000J0*
G01*
X766233Y283633D02*
X778087Y283633D01*
X778087Y295487D01*
X766233Y295487D01*
X766233Y283633D01*
X766233Y232833D02*
X778087Y232833D01*
X778087Y244687D01*
X766233Y244687D01*
X766233Y232833D01*
X766233Y258233D02*
X778087Y258233D01*
X778087Y270087D01*
X766233Y270087D01*
X766233Y258233D01*
X674815Y44895D02*
X686625Y44895D01*
X680720Y54975D01*
X674815Y44895D01*
X700215Y44895D02*
X712025Y44895D01*
X706120Y54975D01*
X700215Y44895D01*
X735775Y44895D02*
X747585Y44895D01*
X741680Y54975D01*
X735775Y44895D01*
X761175Y44895D02*
X772985Y44895D01*
X767080Y54975D01*
X761175Y44895D01*
X396240Y338369D02*
X403311Y345440D01*
X396240Y352511D01*
X389169Y345440D01*
X396240Y338369D01*
X394296Y344011D02*
X394296Y346154D01*
X395407Y347583D01*
X396518Y347583D01*
X397629Y346154D01*
X397629Y344011D01*
X394296Y345083D02*
X397629Y345083D01*
X370840Y338369D02*
X377911Y345440D01*
X370840Y352511D01*
X363769Y345440D01*
X370840Y338369D01*
X368896Y344011D02*
X368896Y346154D01*
X370007Y347583D01*
X371118Y347583D01*
X372229Y346154D01*
X372229Y344011D01*
X368896Y345083D02*
X372229Y345083D01*
X345440Y338369D02*
X352511Y345440D01*
X345440Y352511D01*
X338369Y345440D01*
X345440Y338369D01*
X343496Y344011D02*
X343496Y346154D01*
X344607Y347583D01*
X345718Y347583D01*
X346829Y346154D01*
X346829Y344011D01*
X343496Y345083D02*
X346829Y345083D01*
X320040Y338369D02*
X327111Y345440D01*
X320040Y352511D01*
X312969Y345440D01*
X320040Y338369D01*
X318096Y344011D02*
X318096Y346154D01*
X319207Y347583D01*
X320318Y347583D01*
X321429Y346154D01*
X321429Y344011D01*
X318096Y345083D02*
X321429Y345083D01*
X294640Y338369D02*
X301711Y345440D01*
X294640Y352511D01*
X287569Y345440D01*
X294640Y338369D01*
X292696Y344011D02*
X292696Y346154D01*
X293807Y347583D01*
X294918Y347583D01*
X296029Y346154D01*
X296029Y344011D01*
X292696Y345083D02*
X296029Y345083D01*
X269240Y338369D02*
X276311Y345440D01*
X269240Y352511D01*
X262169Y345440D01*
X269240Y338369D01*
X267296Y344011D02*
X267296Y346154D01*
X268407Y347583D01*
X269518Y347583D01*
X270629Y346154D01*
X270629Y344011D01*
X267296Y345083D02*
X270629Y345083D01*
X243840Y338369D02*
X250911Y345440D01*
X243840Y352511D01*
X236769Y345440D01*
X243840Y338369D01*
X241896Y344011D02*
X241896Y346154D01*
X243007Y347583D01*
X244118Y347583D01*
X245229Y346154D01*
X245229Y344011D01*
X241896Y345083D02*
X245229Y345083D01*
X218440Y338369D02*
X225511Y345440D01*
X218440Y352511D01*
X211369Y345440D01*
X218440Y338369D01*
X216496Y344011D02*
X216496Y346154D01*
X217607Y347583D01*
X218718Y347583D01*
X219829Y346154D01*
X219829Y344011D01*
X216496Y345083D02*
X219829Y345083D01*
X193040Y338369D02*
X200111Y345440D01*
X193040Y352511D01*
X185969Y345440D01*
X193040Y338369D01*
X191096Y344011D02*
X191096Y346154D01*
X192207Y347583D01*
X193318Y347583D01*
X194429Y346154D01*
X194429Y344011D01*
X191096Y345083D02*
X194429Y345083D01*
X167640Y338369D02*
X174711Y345440D01*
X167640Y352511D01*
X160569Y345440D01*
X167640Y338369D01*
X165696Y344011D02*
X165696Y346154D01*
X166807Y347583D01*
X167918Y347583D01*
X169029Y346154D01*
X169029Y344011D01*
X165696Y345083D02*
X169029Y345083D01*
X142240Y338369D02*
X149311Y345440D01*
X142240Y352511D01*
X135169Y345440D01*
X142240Y338369D01*
X140296Y344011D02*
X140296Y346154D01*
X141407Y347583D01*
X142518Y347583D01*
X143629Y346154D01*
X143629Y344011D01*
X140296Y345083D02*
X143629Y345083D01*
X116840Y338369D02*
X123911Y345440D01*
X116840Y352511D01*
X109769Y345440D01*
X116840Y338369D01*
X114896Y344011D02*
X114896Y346154D01*
X116007Y347583D01*
X117118Y347583D01*
X118229Y346154D01*
X118229Y344011D01*
X114896Y345083D02*
X118229Y345083D01*
X91440Y338369D02*
X98511Y345440D01*
X91440Y352511D01*
X84369Y345440D01*
X91440Y338369D01*
X89496Y344011D02*
X89496Y346154D01*
X90607Y347583D01*
X91718Y347583D01*
X92829Y346154D01*
X92829Y344011D01*
X89496Y345083D02*
X92829Y345083D01*
X66040Y338369D02*
X73111Y345440D01*
X66040Y352511D01*
X58969Y345440D01*
X66040Y338369D01*
X64096Y344011D02*
X64096Y346154D01*
X65207Y347583D01*
X66318Y347583D01*
X67429Y346154D01*
X67429Y344011D01*
X64096Y345083D02*
X67429Y345083D01*
X40640Y338369D02*
X47711Y345440D01*
X40640Y352511D01*
X33569Y345440D01*
X40640Y338369D01*
X38696Y344011D02*
X38696Y346154D01*
X39807Y347583D01*
X40918Y347583D01*
X42029Y346154D01*
X42029Y344011D01*
X38696Y345083D02*
X42029Y345083D01*
X396240Y185969D02*
X403311Y193040D01*
X396240Y200111D01*
X389169Y193040D01*
X396240Y185969D01*
X394296Y191611D02*
X394296Y193754D01*
X395407Y195183D01*
X396518Y195183D01*
X397629Y193754D01*
X397629Y191611D01*
X394296Y192683D02*
X397629Y192683D01*
X370840Y185969D02*
X377911Y193040D01*
X370840Y200111D01*
X363769Y193040D01*
X370840Y185969D01*
X368896Y191611D02*
X368896Y193754D01*
X370007Y195183D01*
X371118Y195183D01*
X372229Y193754D01*
X372229Y191611D01*
X368896Y192683D02*
X372229Y192683D01*
X345440Y185969D02*
X352511Y193040D01*
X345440Y200111D01*
X338369Y193040D01*
X345440Y185969D01*
X343496Y191611D02*
X343496Y193754D01*
X344607Y195183D01*
X345718Y195183D01*
X346829Y193754D01*
X346829Y191611D01*
X343496Y192683D02*
X346829Y192683D01*
X320040Y185969D02*
X327111Y193040D01*
X320040Y200111D01*
X312969Y193040D01*
X320040Y185969D01*
X318096Y191611D02*
X318096Y193754D01*
X319207Y195183D01*
X320318Y195183D01*
X321429Y193754D01*
X321429Y191611D01*
X318096Y192683D02*
X321429Y192683D01*
X294640Y185969D02*
X301711Y193040D01*
X294640Y200111D01*
X287569Y193040D01*
X294640Y185969D01*
X292696Y191611D02*
X292696Y193754D01*
X293807Y195183D01*
X294918Y195183D01*
X296029Y193754D01*
X296029Y191611D01*
X292696Y192683D02*
X296029Y192683D01*
X269240Y185969D02*
X276311Y193040D01*
X269240Y200111D01*
X262169Y193040D01*
X269240Y185969D01*
X267296Y191611D02*
X267296Y193754D01*
X268407Y195183D01*
X269518Y195183D01*
X270629Y193754D01*
X270629Y191611D01*
X267296Y192683D02*
X270629Y192683D01*
X243840Y185969D02*
X250911Y193040D01*
X243840Y200111D01*
X236769Y193040D01*
X243840Y185969D01*
X241896Y191611D02*
X241896Y193754D01*
X243007Y195183D01*
X244118Y195183D01*
X245229Y193754D01*
X245229Y191611D01*
X241896Y192683D02*
X245229Y192683D01*
X218440Y185969D02*
X225511Y193040D01*
X218440Y200111D01*
X211369Y193040D01*
X218440Y185969D01*
X216496Y191611D02*
X216496Y193754D01*
X217607Y195183D01*
X218718Y195183D01*
X219829Y193754D01*
X219829Y191611D01*
X216496Y192683D02*
X219829Y192683D01*
X193040Y185969D02*
X200111Y193040D01*
X193040Y200111D01*
X185969Y193040D01*
X193040Y185969D01*
X191096Y191611D02*
X191096Y193754D01*
X192207Y195183D01*
X193318Y195183D01*
X194429Y193754D01*
X194429Y191611D01*
X191096Y192683D02*
X194429Y192683D01*
X167640Y185969D02*
X174711Y193040D01*
X167640Y200111D01*
X160569Y193040D01*
X167640Y185969D01*
X165696Y191611D02*
X165696Y193754D01*
X166807Y195183D01*
X167918Y195183D01*
X169029Y193754D01*
X169029Y191611D01*
X165696Y192683D02*
X169029Y192683D01*
X142240Y185969D02*
X149311Y193040D01*
X142240Y200111D01*
X135169Y193040D01*
X142240Y185969D01*
X140296Y191611D02*
X140296Y193754D01*
X141407Y195183D01*
X142518Y195183D01*
X143629Y193754D01*
X143629Y191611D01*
X140296Y192683D02*
X143629Y192683D01*
X116840Y185969D02*
X123911Y193040D01*
X116840Y200111D01*
X109769Y193040D01*
X116840Y185969D01*
X114896Y191611D02*
X114896Y193754D01*
X116007Y195183D01*
X117118Y195183D01*
X118229Y193754D01*
X118229Y191611D01*
X114896Y192683D02*
X118229Y192683D01*
X91440Y185969D02*
X98511Y193040D01*
X91440Y200111D01*
X84369Y193040D01*
X91440Y185969D01*
X89496Y191611D02*
X89496Y193754D01*
X90607Y195183D01*
X91718Y195183D01*
X92829Y193754D01*
X92829Y191611D01*
X89496Y192683D02*
X92829Y192683D01*
X66040Y185969D02*
X73111Y193040D01*
X66040Y200111D01*
X58969Y193040D01*
X66040Y185969D01*
X64096Y191611D02*
X64096Y193754D01*
X65207Y195183D01*
X66318Y195183D01*
X67429Y193754D01*
X67429Y191611D01*
X64096Y192683D02*
X67429Y192683D01*
X40640Y185969D02*
X47711Y193040D01*
X40640Y200111D01*
X33569Y193040D01*
X40640Y185969D01*
X38696Y191611D02*
X38696Y193754D01*
X39807Y195183D01*
X40918Y195183D01*
X42029Y193754D01*
X42029Y191611D01*
X38696Y192683D02*
X42029Y192683D01*
X766233Y385233D02*
X778087Y385233D01*
X778087Y397087D01*
X766233Y397087D01*
X766233Y385233D01*
X766233Y410633D02*
X778087Y410633D01*
X778087Y422487D01*
X766233Y422487D01*
X766233Y410633D01*
X766233Y436033D02*
X778087Y436033D01*
X778087Y447887D01*
X766233Y447887D01*
X766233Y436033D01*
X1095040Y36040D02*
G75*
D01*
G02X1095040Y36040I8000J0*
G01*
X1210707Y44611D02*
X1217373Y48897D01*
X1217373Y27469D01*
X1207373Y27469D02*
X1227373Y27469D01*
X1247373Y27469D02*
X1247373Y29611D01*
X1284040Y48897D02*
X1274040Y48897D01*
X1267373Y44611D01*
X1267373Y36040D01*
X1267373Y31754D01*
X1274040Y27469D01*
X1280707Y27469D01*
X1287373Y31754D01*
X1287373Y36040D01*
X1280707Y40326D01*
X1274040Y40326D01*
X1267373Y36040D01*
X1297373Y44611D02*
X1304040Y48897D01*
X1310707Y48897D01*
X1317373Y44611D01*
X1317373Y31754D01*
X1310707Y27469D01*
X1304040Y27469D01*
X1297373Y31754D01*
X1297373Y44611D01*
X1317373Y44611D02*
X1297373Y31754D01*
X1327373Y44611D02*
X1334040Y48897D01*
X1340707Y48897D01*
X1347373Y44611D01*
X1347373Y31754D01*
X1340707Y27469D01*
X1334040Y27469D01*
X1327373Y31754D01*
X1327373Y44611D01*
X1347373Y44611D02*
X1327373Y31754D01*
X1357373Y44611D02*
X1364040Y48897D01*
X1370707Y48897D01*
X1377373Y44611D01*
X1377373Y31754D01*
X1370707Y27469D01*
X1364040Y27469D01*
X1357373Y31754D01*
X1357373Y44611D01*
X1377373Y44611D02*
X1357373Y31754D01*
X1503373Y44611D02*
X1510040Y48897D01*
X1516707Y48897D01*
X1523373Y44611D01*
X1523373Y42469D01*
X1503373Y27469D01*
X1523373Y27469D01*
X1523373Y29611D01*
X1694373Y27469D02*
X1694373Y48897D01*
X1707707Y48897D01*
X1714373Y44611D01*
X1714373Y42469D01*
X1707707Y38183D01*
X1694373Y38183D01*
X1734373Y27469D02*
X1734373Y48897D01*
X1724373Y48897D02*
X1744373Y48897D01*
X1754373Y27469D02*
X1754373Y48897D01*
X1774373Y27469D02*
X1774373Y48897D01*
X1754373Y38183D02*
X1774373Y38183D01*
X1870373Y44611D02*
X1877040Y48897D01*
X1883707Y48897D01*
X1890373Y44611D01*
X1890373Y31754D01*
X1883707Y27469D01*
X1877040Y27469D01*
X1870373Y31754D01*
X1870373Y44611D01*
X1890373Y44611D02*
X1870373Y31754D01*
X1947040Y27469D02*
X1943707Y27469D01*
X1937040Y31754D01*
X1937040Y44611D01*
X1943707Y48897D01*
X1947040Y48897D01*
X1960373Y27469D02*
X1960373Y48897D01*
X1973707Y48897D01*
X1980373Y44611D01*
X1980373Y42469D01*
X1973707Y38183D01*
X1960373Y38183D01*
X1963707Y38183D02*
X1980373Y27469D01*
X1990373Y31754D02*
X1997040Y27469D01*
X2003707Y27469D01*
X2010373Y31754D01*
X2010373Y44611D01*
X2003707Y48897D01*
X1997040Y48897D01*
X1990373Y44611D01*
X1990373Y31754D01*
X2020373Y48897D02*
X2020373Y31754D01*
X2027040Y27469D01*
X2033707Y27469D01*
X2040373Y31754D01*
X2040373Y48897D01*
X2050373Y27469D02*
X2050373Y48897D01*
X2070373Y27469D01*
X2070373Y48897D01*
X2080373Y27469D02*
X2093707Y27469D01*
X2100373Y31754D01*
X2100373Y44611D01*
X2093707Y48897D01*
X2080373Y48897D01*
X2083707Y48897D02*
X2083707Y27469D01*
X2113707Y48897D02*
X2117040Y48897D01*
X2123707Y44611D01*
X2123707Y31754D01*
X2117040Y27469D01*
X2113707Y27469D01*
X1097113Y71113D02*
X1108967Y71113D01*
X1108967Y82967D01*
X1097113Y82967D01*
X1097113Y71113D01*
X1210707Y85611D02*
X1217373Y89897D01*
X1217373Y68469D01*
X1207373Y68469D02*
X1227373Y68469D01*
X1247373Y68469D02*
X1247373Y70611D01*
X1270707Y85611D02*
X1277373Y89897D01*
X1277373Y68469D01*
X1267373Y68469D02*
X1287373Y68469D01*
X1310707Y68469D02*
X1304040Y68469D01*
X1297373Y72754D01*
X1297373Y77040D01*
X1300707Y79183D01*
X1297373Y81326D01*
X1297373Y85611D01*
X1304040Y89897D01*
X1310707Y89897D01*
X1317373Y85611D01*
X1317373Y81326D01*
X1314040Y79183D01*
X1317373Y77040D01*
X1317373Y72754D01*
X1310707Y68469D01*
X1300707Y79183D02*
X1314040Y79183D01*
X1347373Y89897D02*
X1327373Y89897D01*
X1327373Y81326D01*
X1340707Y81326D01*
X1347373Y77040D01*
X1347373Y72754D01*
X1340707Y68469D01*
X1327373Y68469D01*
X1377373Y77040D02*
X1357373Y77040D01*
X1374040Y89897D01*
X1374040Y68469D01*
X1370707Y68469D02*
X1377373Y68469D01*
X1520040Y89897D02*
X1510040Y89897D01*
X1503373Y85611D01*
X1503373Y77040D01*
X1503373Y72754D01*
X1510040Y68469D01*
X1516707Y68469D01*
X1523373Y72754D01*
X1523373Y77040D01*
X1516707Y81326D01*
X1510040Y81326D01*
X1503373Y77040D01*
X1694373Y68469D02*
X1694373Y89897D01*
X1707707Y89897D01*
X1714373Y85611D01*
X1714373Y83469D01*
X1707707Y79183D01*
X1694373Y79183D01*
X1734373Y68469D02*
X1734373Y89897D01*
X1724373Y89897D02*
X1744373Y89897D01*
X1754373Y68469D02*
X1754373Y89897D01*
X1774373Y68469D02*
X1774373Y89897D01*
X1754373Y79183D02*
X1774373Y79183D01*
X1870373Y85611D02*
X1877040Y89897D01*
X1883707Y89897D01*
X1890373Y85611D01*
X1890373Y72754D01*
X1883707Y68469D01*
X1877040Y68469D01*
X1870373Y72754D01*
X1870373Y85611D01*
X1890373Y85611D02*
X1870373Y72754D01*
X1947040Y68469D02*
X1943707Y68469D01*
X1937040Y72754D01*
X1937040Y85611D01*
X1943707Y89897D01*
X1947040Y89897D01*
X1960373Y68469D02*
X1960373Y89897D01*
X1973707Y89897D01*
X1980373Y85611D01*
X1980373Y83469D01*
X1973707Y79183D01*
X1960373Y79183D01*
X1963707Y79183D02*
X1980373Y68469D01*
X1990373Y72754D02*
X1997040Y68469D01*
X2003707Y68469D01*
X2010373Y72754D01*
X2010373Y85611D01*
X2003707Y89897D01*
X1997040Y89897D01*
X1990373Y85611D01*
X1990373Y72754D01*
X2020373Y89897D02*
X2020373Y72754D01*
X2027040Y68469D01*
X2033707Y68469D01*
X2040373Y72754D01*
X2040373Y89897D01*
X2050373Y68469D02*
X2050373Y89897D01*
X2070373Y68469D01*
X2070373Y89897D01*
X2080373Y68469D02*
X2093707Y68469D01*
X2100373Y72754D01*
X2100373Y85611D01*
X2093707Y89897D01*
X2080373Y89897D01*
X2083707Y89897D02*
X2083707Y68469D01*
X2113707Y89897D02*
X2117040Y89897D01*
X2123707Y85611D01*
X2123707Y72754D01*
X2117040Y68469D01*
X2113707Y68469D01*
X1097135Y112135D02*
X1108945Y112135D01*
X1103040Y122215D01*
X1097135Y112135D01*
X1210707Y126611D02*
X1217373Y130897D01*
X1217373Y109469D01*
X1207373Y109469D02*
X1227373Y109469D01*
X1247373Y109469D02*
X1247373Y111611D01*
X1270707Y126611D02*
X1277373Y130897D01*
X1277373Y109469D01*
X1267373Y109469D02*
X1287373Y109469D01*
X1310707Y109469D02*
X1304040Y109469D01*
X1297373Y113754D01*
X1297373Y118040D01*
X1300707Y120183D01*
X1297373Y122326D01*
X1297373Y126611D01*
X1304040Y130897D01*
X1310707Y130897D01*
X1317373Y126611D01*
X1317373Y122326D01*
X1314040Y120183D01*
X1317373Y118040D01*
X1317373Y113754D01*
X1310707Y109469D01*
X1300707Y120183D02*
X1314040Y120183D01*
X1330707Y126611D02*
X1337373Y130897D01*
X1337373Y109469D01*
X1327373Y109469D02*
X1347373Y109469D01*
X1357373Y126611D02*
X1364040Y130897D01*
X1370707Y130897D01*
X1377373Y126611D01*
X1377373Y113754D01*
X1370707Y109469D01*
X1364040Y109469D01*
X1357373Y113754D01*
X1357373Y126611D01*
X1377373Y126611D02*
X1357373Y113754D01*
X1523373Y118040D02*
X1503373Y118040D01*
X1520040Y130897D01*
X1520040Y109469D01*
X1516707Y109469D02*
X1523373Y109469D01*
X1694373Y109469D02*
X1694373Y130897D01*
X1707707Y130897D01*
X1714373Y126611D01*
X1714373Y124469D01*
X1707707Y120183D01*
X1694373Y120183D01*
X1734373Y109469D02*
X1734373Y130897D01*
X1724373Y130897D02*
X1744373Y130897D01*
X1754373Y109469D02*
X1754373Y130897D01*
X1774373Y109469D02*
X1774373Y130897D01*
X1754373Y120183D02*
X1774373Y120183D01*
X1870373Y126611D02*
X1877040Y130897D01*
X1883707Y130897D01*
X1890373Y126611D01*
X1890373Y113754D01*
X1883707Y109469D01*
X1877040Y109469D01*
X1870373Y113754D01*
X1870373Y126611D01*
X1890373Y126611D02*
X1870373Y113754D01*
X1947040Y109469D02*
X1943707Y109469D01*
X1937040Y113754D01*
X1937040Y126611D01*
X1943707Y130897D01*
X1947040Y130897D01*
X1960373Y109469D02*
X1960373Y130897D01*
X1973707Y130897D01*
X1980373Y126611D01*
X1980373Y124469D01*
X1973707Y120183D01*
X1960373Y120183D01*
X1963707Y120183D02*
X1980373Y109469D01*
X1990373Y113754D02*
X1997040Y109469D01*
X2003707Y109469D01*
X2010373Y113754D01*
X2010373Y126611D01*
X2003707Y130897D01*
X1997040Y130897D01*
X1990373Y126611D01*
X1990373Y113754D01*
X2020373Y130897D02*
X2020373Y113754D01*
X2027040Y109469D01*
X2033707Y109469D01*
X2040373Y113754D01*
X2040373Y130897D01*
X2050373Y109469D02*
X2050373Y130897D01*
X2070373Y109469D01*
X2070373Y130897D01*
X2080373Y109469D02*
X2093707Y109469D01*
X2100373Y113754D01*
X2100373Y126611D01*
X2093707Y130897D01*
X2080373Y130897D01*
X2083707Y130897D02*
X2083707Y109469D01*
X2113707Y130897D02*
X2117040Y130897D01*
X2123707Y126611D01*
X2123707Y113754D01*
X2117040Y109469D01*
X2113707Y109469D01*
X1103040Y151969D02*
X1110111Y159040D01*
X1103040Y166111D01*
X1095969Y159040D01*
X1103040Y151969D01*
X1101096Y157611D02*
X1101096Y159754D01*
X1102207Y161183D01*
X1103318Y161183D01*
X1104429Y159754D01*
X1104429Y157611D01*
X1101096Y158683D02*
X1104429Y158683D01*
X1210707Y167611D02*
X1217373Y171897D01*
X1217373Y150469D01*
X1207373Y150469D02*
X1227373Y150469D01*
X1247373Y150469D02*
X1247373Y152611D01*
X1267373Y167611D02*
X1274040Y171897D01*
X1280707Y171897D01*
X1287373Y167611D01*
X1287373Y154754D01*
X1280707Y150469D01*
X1274040Y150469D01*
X1267373Y154754D01*
X1267373Y167611D01*
X1287373Y167611D02*
X1267373Y154754D01*
X1297373Y167611D02*
X1304040Y171897D01*
X1310707Y171897D01*
X1317373Y167611D01*
X1317373Y154754D01*
X1310707Y150469D01*
X1304040Y150469D01*
X1297373Y154754D01*
X1297373Y167611D01*
X1317373Y167611D02*
X1297373Y154754D01*
X1327373Y167611D02*
X1334040Y171897D01*
X1340707Y171897D01*
X1347373Y167611D01*
X1347373Y154754D01*
X1340707Y150469D01*
X1334040Y150469D01*
X1327373Y154754D01*
X1327373Y167611D01*
X1347373Y167611D02*
X1327373Y154754D01*
X1357373Y167611D02*
X1364040Y171897D01*
X1370707Y171897D01*
X1377373Y167611D01*
X1377373Y154754D01*
X1370707Y150469D01*
X1364040Y150469D01*
X1357373Y154754D01*
X1357373Y167611D01*
X1377373Y167611D02*
X1357373Y154754D01*
X1491707Y169754D02*
X1495040Y171897D01*
X1501707Y171897D01*
X1508373Y167611D01*
X1508373Y163326D01*
X1505040Y161183D01*
X1508373Y159040D01*
X1508373Y154754D01*
X1501707Y150469D01*
X1495040Y150469D01*
X1491707Y152611D01*
X1495040Y161183D02*
X1505040Y161183D01*
X1518373Y167611D02*
X1525040Y171897D01*
X1531707Y171897D01*
X1538373Y167611D01*
X1538373Y154754D01*
X1531707Y150469D01*
X1525040Y150469D01*
X1518373Y154754D01*
X1518373Y167611D01*
X1538373Y167611D02*
X1518373Y154754D01*
X1694373Y150469D02*
X1694373Y171897D01*
X1707707Y171897D01*
X1714373Y167611D01*
X1714373Y165469D01*
X1707707Y161183D01*
X1694373Y161183D01*
X1734373Y150469D02*
X1734373Y171897D01*
X1724373Y171897D02*
X1744373Y171897D01*
X1754373Y150469D02*
X1754373Y171897D01*
X1774373Y150469D02*
X1774373Y171897D01*
X1754373Y161183D02*
X1774373Y161183D01*
X1870373Y167611D02*
X1877040Y171897D01*
X1883707Y171897D01*
X1890373Y167611D01*
X1890373Y154754D01*
X1883707Y150469D01*
X1877040Y150469D01*
X1870373Y154754D01*
X1870373Y167611D01*
X1890373Y167611D02*
X1870373Y154754D01*
X1947040Y150469D02*
X1943707Y150469D01*
X1937040Y154754D01*
X1937040Y167611D01*
X1943707Y171897D01*
X1947040Y171897D01*
X1960373Y150469D02*
X1960373Y171897D01*
X1973707Y171897D01*
X1980373Y167611D01*
X1980373Y165469D01*
X1973707Y161183D01*
X1960373Y161183D01*
X1963707Y161183D02*
X1980373Y150469D01*
X1990373Y154754D02*
X1997040Y150469D01*
X2003707Y150469D01*
X2010373Y154754D01*
X2010373Y167611D01*
X2003707Y171897D01*
X1997040Y171897D01*
X1990373Y167611D01*
X1990373Y154754D01*
X2020373Y171897D02*
X2020373Y154754D01*
X2027040Y150469D01*
X2033707Y150469D01*
X2040373Y154754D01*
X2040373Y171897D01*
X2050373Y150469D02*
X2050373Y171897D01*
X2070373Y150469D01*
X2070373Y171897D01*
X2080373Y150469D02*
X2093707Y150469D01*
X2100373Y154754D01*
X2100373Y167611D01*
X2093707Y171897D01*
X2080373Y171897D01*
X2083707Y171897D02*
X2083707Y150469D01*
X2113707Y171897D02*
X2117040Y171897D01*
X2123707Y167611D01*
X2123707Y154754D01*
X2117040Y150469D01*
X2113707Y150469D01*
X1207373Y208611D02*
X1214040Y212897D01*
X1220707Y212897D01*
X1227373Y208611D01*
X1227373Y195754D01*
X1220707Y191469D01*
X1214040Y191469D01*
X1207373Y195754D01*
X1207373Y208611D01*
X1227373Y208611D02*
X1207373Y195754D01*
X1247373Y191469D02*
X1247373Y193611D01*
X1267373Y195754D02*
X1274040Y191469D01*
X1280707Y191469D01*
X1287373Y195754D01*
X1287373Y204326D01*
X1287373Y208611D01*
X1280707Y212897D01*
X1274040Y212897D01*
X1267373Y208611D01*
X1267373Y204326D01*
X1274040Y200040D01*
X1280707Y200040D01*
X1287373Y204326D01*
X1297373Y195754D02*
X1304040Y191469D01*
X1310707Y191469D01*
X1317373Y195754D01*
X1317373Y204326D01*
X1317373Y208611D01*
X1310707Y212897D01*
X1304040Y212897D01*
X1297373Y208611D01*
X1297373Y204326D01*
X1304040Y200040D01*
X1310707Y200040D01*
X1317373Y204326D01*
X1347373Y200040D02*
X1327373Y200040D01*
X1344040Y212897D01*
X1344040Y191469D01*
X1340707Y191469D02*
X1347373Y191469D01*
X1357373Y195754D02*
X1364040Y191469D01*
X1370707Y191469D01*
X1377373Y195754D01*
X1377373Y204326D01*
X1377373Y208611D01*
X1370707Y212897D01*
X1364040Y212897D01*
X1357373Y208611D01*
X1357373Y204326D01*
X1364040Y200040D01*
X1370707Y200040D01*
X1377373Y204326D01*
X1523373Y212897D02*
X1503373Y212897D01*
X1503373Y204326D01*
X1516707Y204326D01*
X1523373Y200040D01*
X1523373Y195754D01*
X1516707Y191469D01*
X1503373Y191469D01*
X1694373Y191469D02*
X1694373Y212897D01*
X1707707Y212897D01*
X1714373Y208611D01*
X1714373Y206469D01*
X1707707Y202183D01*
X1694373Y202183D01*
X1734373Y191469D02*
X1734373Y212897D01*
X1724373Y212897D02*
X1744373Y212897D01*
X1754373Y191469D02*
X1754373Y212897D01*
X1774373Y191469D02*
X1774373Y212897D01*
X1754373Y202183D02*
X1774373Y202183D01*
X1870373Y208611D02*
X1877040Y212897D01*
X1883707Y212897D01*
X1890373Y208611D01*
X1890373Y195754D01*
X1883707Y191469D01*
X1877040Y191469D01*
X1870373Y195754D01*
X1870373Y208611D01*
X1890373Y208611D02*
X1870373Y195754D01*
X1947040Y191469D02*
X1943707Y191469D01*
X1937040Y195754D01*
X1937040Y208611D01*
X1943707Y212897D01*
X1947040Y212897D01*
X1960373Y191469D02*
X1960373Y212897D01*
X1973707Y212897D01*
X1980373Y208611D01*
X1980373Y206469D01*
X1973707Y202183D01*
X1960373Y202183D01*
X1963707Y202183D02*
X1980373Y191469D01*
X1990373Y195754D02*
X1997040Y191469D01*
X2003707Y191469D01*
X2010373Y195754D01*
X2010373Y208611D01*
X2003707Y212897D01*
X1997040Y212897D01*
X1990373Y208611D01*
X1990373Y195754D01*
X2020373Y212897D02*
X2020373Y195754D01*
X2027040Y191469D01*
X2033707Y191469D01*
X2040373Y195754D01*
X2040373Y212897D01*
X2050373Y191469D02*
X2050373Y212897D01*
X2070373Y191469D01*
X2070373Y212897D01*
X2080373Y191469D02*
X2093707Y191469D01*
X2100373Y195754D01*
X2100373Y208611D01*
X2093707Y212897D01*
X2080373Y212897D01*
X2083707Y212897D02*
X2083707Y191469D01*
X2113707Y212897D02*
X2117040Y212897D01*
X2123707Y208611D01*
X2123707Y195754D01*
X2117040Y191469D01*
X2113707Y191469D01*
X1207373Y249611D02*
X1214040Y253897D01*
X1220707Y253897D01*
X1227373Y249611D01*
X1227373Y236754D01*
X1220707Y232469D01*
X1214040Y232469D01*
X1207373Y236754D01*
X1207373Y249611D01*
X1227373Y249611D02*
X1207373Y236754D01*
X1247373Y232469D02*
X1247373Y234611D01*
X1267373Y236754D02*
X1274040Y232469D01*
X1280707Y232469D01*
X1287373Y236754D01*
X1287373Y245326D01*
X1287373Y249611D01*
X1280707Y253897D01*
X1274040Y253897D01*
X1267373Y249611D01*
X1267373Y245326D01*
X1274040Y241040D01*
X1280707Y241040D01*
X1287373Y245326D01*
X1297373Y249611D02*
X1304040Y253897D01*
X1310707Y253897D01*
X1317373Y249611D01*
X1317373Y236754D01*
X1310707Y232469D01*
X1304040Y232469D01*
X1297373Y236754D01*
X1297373Y249611D01*
X1317373Y249611D02*
X1297373Y236754D01*
X1327373Y249611D02*
X1334040Y253897D01*
X1340707Y253897D01*
X1347373Y249611D01*
X1347373Y236754D01*
X1340707Y232469D01*
X1334040Y232469D01*
X1327373Y236754D01*
X1327373Y249611D01*
X1347373Y249611D02*
X1327373Y236754D01*
X1357373Y249611D02*
X1364040Y253897D01*
X1370707Y253897D01*
X1377373Y249611D01*
X1377373Y236754D01*
X1370707Y232469D01*
X1364040Y232469D01*
X1357373Y236754D01*
X1357373Y249611D01*
X1377373Y249611D02*
X1357373Y236754D01*
X1488373Y249611D02*
X1495040Y253897D01*
X1501707Y253897D01*
X1508373Y249611D01*
X1508373Y247469D01*
X1488373Y232469D01*
X1508373Y232469D01*
X1508373Y234611D01*
X1518373Y249611D02*
X1525040Y253897D01*
X1531707Y253897D01*
X1538373Y249611D01*
X1538373Y236754D01*
X1531707Y232469D01*
X1525040Y232469D01*
X1518373Y236754D01*
X1518373Y249611D01*
X1538373Y249611D02*
X1518373Y236754D01*
X1694373Y232469D02*
X1694373Y253897D01*
X1707707Y253897D01*
X1714373Y249611D01*
X1714373Y247469D01*
X1707707Y243183D01*
X1694373Y243183D01*
X1734373Y232469D02*
X1734373Y253897D01*
X1724373Y253897D02*
X1744373Y253897D01*
X1754373Y232469D02*
X1754373Y253897D01*
X1774373Y232469D02*
X1774373Y253897D01*
X1754373Y243183D02*
X1774373Y243183D01*
X1870373Y249611D02*
X1877040Y253897D01*
X1883707Y253897D01*
X1890373Y249611D01*
X1890373Y236754D01*
X1883707Y232469D01*
X1877040Y232469D01*
X1870373Y236754D01*
X1870373Y249611D01*
X1890373Y249611D02*
X1870373Y236754D01*
X1947040Y232469D02*
X1943707Y232469D01*
X1937040Y236754D01*
X1937040Y249611D01*
X1943707Y253897D01*
X1947040Y253897D01*
X1960373Y232469D02*
X1960373Y253897D01*
X1973707Y253897D01*
X1980373Y249611D01*
X1980373Y247469D01*
X1973707Y243183D01*
X1960373Y243183D01*
X1963707Y243183D02*
X1980373Y232469D01*
X1990373Y236754D02*
X1997040Y232469D01*
X2003707Y232469D01*
X2010373Y236754D01*
X2010373Y249611D01*
X2003707Y253897D01*
X1997040Y253897D01*
X1990373Y249611D01*
X1990373Y236754D01*
X2020373Y253897D02*
X2020373Y236754D01*
X2027040Y232469D01*
X2033707Y232469D01*
X2040373Y236754D01*
X2040373Y253897D01*
X2050373Y232469D02*
X2050373Y253897D01*
X2070373Y232469D01*
X2070373Y253897D01*
X2080373Y232469D02*
X2093707Y232469D01*
X2100373Y236754D01*
X2100373Y249611D01*
X2093707Y253897D01*
X2080373Y253897D01*
X2083707Y253897D02*
X2083707Y232469D01*
X2113707Y253897D02*
X2117040Y253897D01*
X2123707Y249611D01*
X2123707Y236754D01*
X2117040Y232469D01*
X2113707Y232469D01*
X1207373Y290611D02*
X1214040Y294897D01*
X1220707Y294897D01*
X1227373Y290611D01*
X1227373Y277754D01*
X1220707Y273469D01*
X1214040Y273469D01*
X1207373Y277754D01*
X1207373Y290611D01*
X1227373Y290611D02*
X1207373Y277754D01*
X1247373Y273469D02*
X1247373Y275611D01*
X1280707Y273469D02*
X1274040Y273469D01*
X1267373Y277754D01*
X1267373Y282040D01*
X1270707Y284183D01*
X1267373Y286326D01*
X1267373Y290611D01*
X1274040Y294897D01*
X1280707Y294897D01*
X1287373Y290611D01*
X1287373Y286326D01*
X1284040Y284183D01*
X1287373Y282040D01*
X1287373Y277754D01*
X1280707Y273469D01*
X1270707Y284183D02*
X1284040Y284183D01*
X1310707Y273469D02*
X1304040Y273469D01*
X1297373Y277754D01*
X1297373Y282040D01*
X1300707Y284183D01*
X1297373Y286326D01*
X1297373Y290611D01*
X1304040Y294897D01*
X1310707Y294897D01*
X1317373Y290611D01*
X1317373Y286326D01*
X1314040Y284183D01*
X1317373Y282040D01*
X1317373Y277754D01*
X1310707Y273469D01*
X1300707Y284183D02*
X1314040Y284183D01*
X1327373Y277754D02*
X1334040Y273469D01*
X1340707Y273469D01*
X1347373Y277754D01*
X1347373Y286326D01*
X1347373Y290611D01*
X1340707Y294897D01*
X1334040Y294897D01*
X1327373Y290611D01*
X1327373Y286326D01*
X1334040Y282040D01*
X1340707Y282040D01*
X1347373Y286326D01*
X1357373Y290611D02*
X1364040Y294897D01*
X1370707Y294897D01*
X1377373Y290611D01*
X1377373Y277754D01*
X1370707Y273469D01*
X1364040Y273469D01*
X1357373Y277754D01*
X1357373Y290611D01*
X1377373Y290611D02*
X1357373Y277754D01*
X1488373Y290611D02*
X1495040Y294897D01*
X1501707Y294897D01*
X1508373Y290611D01*
X1508373Y288469D01*
X1488373Y273469D01*
X1508373Y273469D01*
X1508373Y275611D01*
X1538373Y282040D02*
X1518373Y282040D01*
X1535040Y294897D01*
X1535040Y273469D01*
X1531707Y273469D02*
X1538373Y273469D01*
X1694373Y273469D02*
X1694373Y294897D01*
X1707707Y294897D01*
X1714373Y290611D01*
X1714373Y288469D01*
X1707707Y284183D01*
X1694373Y284183D01*
X1734373Y273469D02*
X1734373Y294897D01*
X1724373Y294897D02*
X1744373Y294897D01*
X1754373Y273469D02*
X1754373Y294897D01*
X1774373Y273469D02*
X1774373Y294897D01*
X1754373Y284183D02*
X1774373Y284183D01*
X1870373Y290611D02*
X1877040Y294897D01*
X1883707Y294897D01*
X1890373Y290611D01*
X1890373Y277754D01*
X1883707Y273469D01*
X1877040Y273469D01*
X1870373Y277754D01*
X1870373Y290611D01*
X1890373Y290611D02*
X1870373Y277754D01*
X1947040Y273469D02*
X1943707Y273469D01*
X1937040Y277754D01*
X1937040Y290611D01*
X1943707Y294897D01*
X1947040Y294897D01*
X1960373Y273469D02*
X1960373Y294897D01*
X1973707Y294897D01*
X1980373Y290611D01*
X1980373Y288469D01*
X1973707Y284183D01*
X1960373Y284183D01*
X1963707Y284183D02*
X1980373Y273469D01*
X1990373Y277754D02*
X1997040Y273469D01*
X2003707Y273469D01*
X2010373Y277754D01*
X2010373Y290611D01*
X2003707Y294897D01*
X1997040Y294897D01*
X1990373Y290611D01*
X1990373Y277754D01*
X2020373Y294897D02*
X2020373Y277754D01*
X2027040Y273469D01*
X2033707Y273469D01*
X2040373Y277754D01*
X2040373Y294897D01*
X2050373Y273469D02*
X2050373Y294897D01*
X2070373Y273469D01*
X2070373Y294897D01*
X2080373Y273469D02*
X2093707Y273469D01*
X2100373Y277754D01*
X2100373Y290611D01*
X2093707Y294897D01*
X2080373Y294897D01*
X2083707Y294897D02*
X2083707Y273469D01*
X2113707Y294897D02*
X2117040Y294897D01*
X2123707Y290611D01*
X2123707Y277754D01*
X2117040Y273469D01*
X2113707Y273469D01*
X1207373Y331611D02*
X1214040Y335897D01*
X1220707Y335897D01*
X1227373Y331611D01*
X1227373Y318754D01*
X1220707Y314469D01*
X1214040Y314469D01*
X1207373Y318754D01*
X1207373Y331611D01*
X1227373Y331611D02*
X1207373Y318754D01*
X1247373Y314469D02*
X1247373Y316611D01*
X1280707Y314469D02*
X1274040Y314469D01*
X1267373Y318754D01*
X1267373Y323040D01*
X1270707Y325183D01*
X1267373Y327326D01*
X1267373Y331611D01*
X1274040Y335897D01*
X1280707Y335897D01*
X1287373Y331611D01*
X1287373Y327326D01*
X1284040Y325183D01*
X1287373Y323040D01*
X1287373Y318754D01*
X1280707Y314469D01*
X1270707Y325183D02*
X1284040Y325183D01*
X1297373Y331611D02*
X1304040Y335897D01*
X1310707Y335897D01*
X1317373Y331611D01*
X1317373Y318754D01*
X1310707Y314469D01*
X1304040Y314469D01*
X1297373Y318754D01*
X1297373Y331611D01*
X1317373Y331611D02*
X1297373Y318754D01*
X1327373Y331611D02*
X1334040Y335897D01*
X1340707Y335897D01*
X1347373Y331611D01*
X1347373Y318754D01*
X1340707Y314469D01*
X1334040Y314469D01*
X1327373Y318754D01*
X1327373Y331611D01*
X1347373Y331611D02*
X1327373Y318754D01*
X1357373Y331611D02*
X1364040Y335897D01*
X1370707Y335897D01*
X1377373Y331611D01*
X1377373Y318754D01*
X1370707Y314469D01*
X1364040Y314469D01*
X1357373Y318754D01*
X1357373Y331611D01*
X1377373Y331611D02*
X1357373Y318754D01*
X1506707Y333754D02*
X1510040Y335897D01*
X1516707Y335897D01*
X1523373Y331611D01*
X1523373Y327326D01*
X1520040Y325183D01*
X1523373Y323040D01*
X1523373Y318754D01*
X1516707Y314469D01*
X1510040Y314469D01*
X1506707Y316611D01*
X1510040Y325183D02*
X1520040Y325183D01*
X1694373Y314469D02*
X1694373Y335897D01*
X1707707Y335897D01*
X1714373Y331611D01*
X1714373Y329469D01*
X1707707Y325183D01*
X1694373Y325183D01*
X1734373Y314469D02*
X1734373Y335897D01*
X1724373Y335897D02*
X1744373Y335897D01*
X1754373Y314469D02*
X1754373Y335897D01*
X1774373Y314469D02*
X1774373Y335897D01*
X1754373Y325183D02*
X1774373Y325183D01*
X1915373Y331611D02*
X1922040Y335897D01*
X1928707Y335897D01*
X1935373Y331611D01*
X1935373Y318754D01*
X1928707Y314469D01*
X1922040Y314469D01*
X1915373Y318754D01*
X1915373Y331611D01*
X1935373Y331611D02*
X1915373Y318754D01*
X1955373Y314469D02*
X1955373Y316611D01*
X1992040Y335897D02*
X1982040Y335897D01*
X1975373Y331611D01*
X1975373Y323040D01*
X1975373Y318754D01*
X1982040Y314469D01*
X1988707Y314469D01*
X1995373Y318754D01*
X1995373Y323040D01*
X1988707Y327326D01*
X1982040Y327326D01*
X1975373Y323040D01*
X2005373Y331611D02*
X2012040Y335897D01*
X2018707Y335897D01*
X2025373Y331611D01*
X2025373Y318754D01*
X2018707Y314469D01*
X2012040Y314469D01*
X2005373Y318754D01*
X2005373Y331611D01*
X2025373Y331611D02*
X2005373Y318754D01*
X2035373Y331611D02*
X2042040Y335897D01*
X2048707Y335897D01*
X2055373Y331611D01*
X2055373Y318754D01*
X2048707Y314469D01*
X2042040Y314469D01*
X2035373Y318754D01*
X2035373Y331611D01*
X2055373Y331611D02*
X2035373Y318754D01*
X2065373Y331611D02*
X2072040Y335897D01*
X2078707Y335897D01*
X2085373Y331611D01*
X2085373Y318754D01*
X2078707Y314469D01*
X2072040Y314469D01*
X2065373Y318754D01*
X2065373Y331611D01*
X2085373Y331611D02*
X2065373Y318754D01*
X1207373Y372611D02*
X1214040Y376897D01*
X1220707Y376897D01*
X1227373Y372611D01*
X1227373Y359754D01*
X1220707Y355469D01*
X1214040Y355469D01*
X1207373Y359754D01*
X1207373Y372611D01*
X1227373Y372611D02*
X1207373Y359754D01*
X1247373Y355469D02*
X1247373Y357611D01*
X1284040Y376897D02*
X1274040Y376897D01*
X1267373Y372611D01*
X1267373Y364040D01*
X1267373Y359754D01*
X1274040Y355469D01*
X1280707Y355469D01*
X1287373Y359754D01*
X1287373Y364040D01*
X1280707Y368326D01*
X1274040Y368326D01*
X1267373Y364040D01*
X1297373Y372611D02*
X1304040Y376897D01*
X1310707Y376897D01*
X1317373Y372611D01*
X1317373Y359754D01*
X1310707Y355469D01*
X1304040Y355469D01*
X1297373Y359754D01*
X1297373Y372611D01*
X1317373Y372611D02*
X1297373Y359754D01*
X1327373Y372611D02*
X1334040Y376897D01*
X1340707Y376897D01*
X1347373Y372611D01*
X1347373Y359754D01*
X1340707Y355469D01*
X1334040Y355469D01*
X1327373Y359754D01*
X1327373Y372611D01*
X1347373Y372611D02*
X1327373Y359754D01*
X1357373Y372611D02*
X1364040Y376897D01*
X1370707Y376897D01*
X1377373Y372611D01*
X1377373Y359754D01*
X1370707Y355469D01*
X1364040Y355469D01*
X1357373Y359754D01*
X1357373Y372611D01*
X1377373Y372611D02*
X1357373Y359754D01*
X1506707Y372611D02*
X1513373Y376897D01*
X1513373Y355469D01*
X1503373Y355469D02*
X1523373Y355469D01*
X1694373Y355469D02*
X1694373Y376897D01*
X1707707Y376897D01*
X1714373Y372611D01*
X1714373Y370469D01*
X1707707Y366183D01*
X1694373Y366183D01*
X1734373Y355469D02*
X1734373Y376897D01*
X1724373Y376897D02*
X1744373Y376897D01*
X1754373Y355469D02*
X1754373Y376897D01*
X1774373Y355469D02*
X1774373Y376897D01*
X1754373Y366183D02*
X1774373Y366183D01*
X1870373Y372611D02*
X1877040Y376897D01*
X1883707Y376897D01*
X1890373Y372611D01*
X1890373Y359754D01*
X1883707Y355469D01*
X1877040Y355469D01*
X1870373Y359754D01*
X1870373Y372611D01*
X1890373Y372611D02*
X1870373Y359754D01*
X1947040Y355469D02*
X1943707Y355469D01*
X1937040Y359754D01*
X1937040Y372611D01*
X1943707Y376897D01*
X1947040Y376897D01*
X1960373Y355469D02*
X1960373Y376897D01*
X1973707Y376897D01*
X1980373Y372611D01*
X1980373Y370469D01*
X1973707Y366183D01*
X1960373Y366183D01*
X1963707Y366183D02*
X1980373Y355469D01*
X1990373Y359754D02*
X1997040Y355469D01*
X2003707Y355469D01*
X2010373Y359754D01*
X2010373Y372611D01*
X2003707Y376897D01*
X1997040Y376897D01*
X1990373Y372611D01*
X1990373Y359754D01*
X2020373Y376897D02*
X2020373Y359754D01*
X2027040Y355469D01*
X2033707Y355469D01*
X2040373Y359754D01*
X2040373Y376897D01*
X2050373Y355469D02*
X2050373Y376897D01*
X2070373Y355469D01*
X2070373Y376897D01*
X2080373Y355469D02*
X2093707Y355469D01*
X2100373Y359754D01*
X2100373Y372611D01*
X2093707Y376897D01*
X2080373Y376897D01*
X2083707Y376897D02*
X2083707Y355469D01*
X2113707Y376897D02*
X2117040Y376897D01*
X2123707Y372611D01*
X2123707Y359754D01*
X2117040Y355469D01*
X2113707Y355469D01*
G04 ColorRGB 00FFFF for the following layer *
%LNBoard Outline*%
%LPD*%
G54D10*
G54D13*
X0Y0D02*
X800000Y0D01*
X800000Y500000D01*
X0Y500000D01*
X0Y0D01*
G54D14*
X-2540Y-2540D02*
X-2540Y47968D01*
X-2540Y-2540D02*
X77968Y-2540D01*
X802540Y-2540D02*
X722032Y-2540D01*
X802540Y-2540D02*
X802540Y47968D01*
X802540Y502540D02*
X802540Y452032D01*
X802540Y502540D02*
X722032Y502540D01*
X-2540Y502540D02*
X77968Y502540D01*
X-2540Y502540D02*
X-2540Y452032D01*
X-52540Y-2540D02*
X-152540Y-2540D01*
X-102540Y-52540D02*
X-102540Y47460D01*
X-140040Y-2540D02*
G75*
D01*
G02X-140040Y-2540I37500J0*
G01*
X852540Y-2540D02*
X952540Y-2540D01*
X902540Y-52540D02*
X902540Y47460D01*
X865040Y-2540D02*
G75*
D01*
G02X865040Y-2540I37500J0*
G01*
X890040Y-2540D02*
G75*
D01*
G02X890040Y-2540I12500J0*
G01*
X-52540Y502540D02*
X-152540Y502540D01*
X-102540Y452540D02*
X-102540Y552540D01*
X-140040Y502540D02*
G75*
D01*
G02X-140040Y502540I37500J0*
G01*
X-127540Y502540D02*
G75*
D01*
G02X-127540Y502540I25000J0*
G01*
X-115040Y502540D02*
G75*
D01*
G02X-115040Y502540I12500J0*
G01*
G04 ColorRGB 66FFCC for the following layer *
%LNLegend Description*%
%LPD*%
G54D12*
X1007540Y15540D02*
X2172540Y15540D01*
X2172540Y507540D01*
X1007540Y507540D01*
X1007540Y15540D01*
X1198540Y425540D02*
X1198540Y15540D01*
X1389540Y425540D02*
X1389540Y15540D01*
X1640540Y425540D02*
X1640540Y15540D01*
X1831540Y425540D02*
X1831540Y15540D01*
X2172540Y425540D02*
X2172540Y15540D01*
X1007540Y56540D02*
X2172540Y56540D01*
X1007540Y97540D02*
X2172540Y97540D01*
X1007540Y138540D02*
X2172540Y138540D01*
X1007540Y179540D02*
X2172540Y179540D01*
X1007540Y220540D02*
X2172540Y220540D01*
X1007540Y261540D02*
X2172540Y261540D01*
X1007540Y302540D02*
X2172540Y302540D01*
X1007540Y343540D02*
X2172540Y343540D01*
X1016373Y400754D02*
X1023040Y396469D01*
X1029707Y396469D01*
X1036373Y400754D01*
X1016373Y413611D01*
X1023040Y417897D01*
X1029707Y417897D01*
X1036373Y413611D01*
X1046373Y390040D02*
X1049707Y390040D01*
X1066373Y411469D01*
X1046373Y411469D02*
X1056373Y398611D01*
X1076373Y396469D02*
X1076373Y409326D01*
X1076373Y411469D01*
X1076373Y409326D02*
X1079707Y411469D01*
X1083040Y411469D01*
X1086373Y409326D01*
X1089707Y411469D01*
X1093040Y411469D01*
X1096373Y409326D01*
X1096373Y396469D01*
X1086373Y409326D02*
X1086373Y396469D01*
X1106373Y400754D02*
X1113040Y396469D01*
X1119707Y396469D01*
X1126373Y400754D01*
X1126373Y405040D01*
X1119707Y409326D01*
X1113040Y409326D01*
X1106373Y405040D01*
X1106373Y417897D02*
X1106373Y396469D01*
X1136373Y400754D02*
X1143040Y396469D01*
X1149707Y396469D01*
X1156373Y400754D01*
X1156373Y407183D01*
X1149707Y411469D01*
X1143040Y411469D01*
X1136373Y407183D01*
X1136373Y400754D01*
X1169707Y417897D02*
X1169707Y400754D01*
X1176373Y396469D01*
X1007540Y384540D02*
X2172540Y384540D01*
X1237373Y400754D02*
X1244040Y396469D01*
X1250707Y396469D01*
X1257373Y400754D01*
X1237373Y413611D01*
X1244040Y417897D01*
X1250707Y417897D01*
X1257373Y413611D01*
X1277373Y396469D02*
X1277373Y409326D01*
X1277373Y413611D02*
X1277373Y415754D01*
X1297373Y411469D02*
X1317373Y411469D01*
X1297373Y396469D01*
X1317373Y396469D01*
X1347373Y400754D02*
X1340707Y396469D01*
X1334040Y396469D01*
X1327373Y400754D01*
X1327373Y407183D01*
X1334040Y411469D01*
X1340707Y411469D01*
X1347373Y407183D01*
X1344040Y405040D01*
X1327373Y405040D01*
X1398373Y400754D02*
X1405040Y396469D01*
X1411707Y396469D01*
X1418373Y400754D01*
X1418373Y413611D01*
X1411707Y417897D01*
X1405040Y417897D01*
X1398373Y413611D01*
X1398373Y400754D01*
X1411707Y400754D02*
X1418373Y396469D01*
X1428373Y411469D02*
X1428373Y400754D01*
X1435040Y396469D01*
X1441707Y396469D01*
X1448373Y400754D01*
X1448373Y411469D01*
X1448373Y400754D02*
X1448373Y396469D01*
X1461707Y411469D02*
X1471707Y411469D01*
X1475040Y409326D01*
X1475040Y398611D01*
X1471707Y396469D01*
X1461707Y396469D01*
X1458373Y398611D01*
X1458373Y402897D01*
X1461707Y405040D01*
X1475040Y405040D01*
X1475040Y398611D02*
X1478373Y396469D01*
X1488373Y396469D02*
X1488373Y409326D01*
X1488373Y411469D01*
X1488373Y409326D02*
X1491707Y411469D01*
X1498373Y411469D01*
X1501707Y409326D01*
X1501707Y396469D01*
X1535040Y398611D02*
X1531707Y396469D01*
X1528373Y398611D01*
X1528373Y417897D01*
X1521707Y411469D02*
X1535040Y411469D01*
X1558373Y396469D02*
X1558373Y409326D01*
X1558373Y413611D02*
X1558373Y415754D01*
X1595040Y398611D02*
X1591707Y396469D01*
X1588373Y398611D01*
X1588373Y417897D01*
X1581707Y411469D02*
X1595040Y411469D01*
X1608373Y390040D02*
X1611707Y390040D01*
X1628373Y411469D01*
X1608373Y411469D02*
X1618373Y398611D01*
X1649373Y396469D02*
X1649373Y417897D01*
X1662707Y417897D01*
X1669373Y413611D01*
X1669373Y411469D01*
X1662707Y407183D01*
X1649373Y407183D01*
X1682707Y417897D02*
X1682707Y400754D01*
X1689373Y396469D01*
X1712707Y411469D02*
X1722707Y411469D01*
X1726040Y409326D01*
X1726040Y398611D01*
X1722707Y396469D01*
X1712707Y396469D01*
X1709373Y398611D01*
X1709373Y402897D01*
X1712707Y405040D01*
X1726040Y405040D01*
X1726040Y398611D02*
X1729373Y396469D01*
X1756040Y398611D02*
X1752707Y396469D01*
X1749373Y398611D01*
X1749373Y417897D01*
X1742707Y411469D02*
X1756040Y411469D01*
X1789373Y400754D02*
X1782707Y396469D01*
X1776040Y396469D01*
X1769373Y400754D01*
X1769373Y407183D01*
X1776040Y411469D01*
X1782707Y411469D01*
X1789373Y407183D01*
X1786040Y405040D01*
X1769373Y405040D01*
X1819373Y400754D02*
X1812707Y396469D01*
X1806040Y396469D01*
X1799373Y400754D01*
X1799373Y405040D01*
X1806040Y409326D01*
X1812707Y409326D01*
X1819373Y405040D01*
X1819373Y417897D02*
X1819373Y396469D01*
X1840373Y400754D02*
X1847040Y396469D01*
X1853707Y396469D01*
X1860373Y400754D01*
X1840373Y413611D01*
X1847040Y417897D01*
X1853707Y417897D01*
X1860373Y413611D01*
X1873707Y417897D02*
X1873707Y400754D01*
X1880373Y396469D01*
X1900373Y400754D02*
X1907040Y396469D01*
X1913707Y396469D01*
X1920373Y400754D01*
X1920373Y407183D01*
X1913707Y411469D01*
X1907040Y411469D01*
X1900373Y407183D01*
X1900373Y400754D01*
X1947040Y398611D02*
X1943707Y396469D01*
X1940373Y398611D01*
X1940373Y417897D01*
X1933707Y411469D02*
X1947040Y411469D01*
X1990373Y417897D02*
X1990373Y396469D01*
X2010373Y396469D01*
X2040373Y400754D02*
X2033707Y396469D01*
X2027040Y396469D01*
X2020373Y400754D01*
X2020373Y407183D01*
X2027040Y411469D01*
X2033707Y411469D01*
X2040373Y407183D01*
X2037040Y405040D01*
X2020373Y405040D01*
X2050373Y396469D02*
X2050373Y409326D01*
X2050373Y411469D01*
X2050373Y409326D02*
X2053707Y411469D01*
X2060373Y411469D01*
X2063707Y409326D01*
X2063707Y396469D01*
X2080373Y394326D02*
X2087040Y390040D01*
X2093707Y390040D01*
X2100373Y394326D01*
X2100373Y400754D01*
X2100373Y407183D01*
X2093707Y411469D01*
X2087040Y411469D01*
X2080373Y407183D01*
X2080373Y400754D01*
X2087040Y396469D01*
X2093707Y396469D01*
X2100373Y400754D01*
X2127040Y398611D02*
X2123707Y396469D01*
X2120373Y398611D01*
X2120373Y417897D01*
X2113707Y411469D02*
X2127040Y411469D01*
X2140373Y407183D02*
X2147040Y411469D01*
X2153707Y411469D01*
X2160373Y407183D01*
X2160373Y396469D01*
X2140373Y417897D02*
X2140373Y396469D01*
X1007540Y425540D02*
X2172540Y425540D01*
X1308373Y437469D02*
X1308373Y450326D01*
X1315040Y458897D01*
X1321707Y458897D01*
X1328373Y450326D01*
X1328373Y437469D01*
X1308373Y443897D02*
X1328373Y443897D01*
X1341707Y458897D02*
X1341707Y441754D01*
X1348373Y437469D01*
X1371707Y458897D02*
X1371707Y441754D01*
X1378373Y437469D01*
X1428373Y452469D02*
X1428373Y441754D01*
X1435040Y437469D01*
X1441707Y437469D01*
X1448373Y441754D01*
X1448373Y452469D01*
X1448373Y441754D02*
X1448373Y437469D01*
X1458373Y437469D02*
X1458373Y450326D01*
X1458373Y452469D01*
X1458373Y450326D02*
X1461707Y452469D01*
X1468373Y452469D01*
X1471707Y450326D01*
X1471707Y437469D01*
X1498373Y437469D02*
X1498373Y450326D01*
X1498373Y454611D02*
X1498373Y456754D01*
X1535040Y439611D02*
X1531707Y437469D01*
X1528373Y439611D01*
X1528373Y458897D01*
X1521707Y452469D02*
X1535040Y452469D01*
X1548373Y441754D02*
X1555040Y437469D01*
X1561707Y437469D01*
X1568373Y441754D01*
X1548373Y448183D01*
X1555040Y452469D01*
X1561707Y452469D01*
X1568373Y448183D01*
X1611707Y452469D02*
X1621707Y452469D01*
X1625040Y450326D01*
X1625040Y439611D01*
X1621707Y437469D01*
X1611707Y437469D01*
X1608373Y439611D01*
X1608373Y443897D01*
X1611707Y446040D01*
X1625040Y446040D01*
X1625040Y439611D02*
X1628373Y437469D01*
X1638373Y446040D02*
X1648373Y452469D01*
X1651707Y452469D01*
X1658373Y448183D01*
X1638373Y437469D02*
X1638373Y452469D01*
X1688373Y441754D02*
X1681707Y437469D01*
X1675040Y437469D01*
X1668373Y441754D01*
X1668373Y448183D01*
X1675040Y452469D01*
X1681707Y452469D01*
X1688373Y448183D01*
X1685040Y446040D01*
X1668373Y446040D01*
X1738373Y437469D02*
X1738373Y450326D01*
X1738373Y454611D02*
X1738373Y456754D01*
X1758373Y437469D02*
X1758373Y450326D01*
X1758373Y452469D01*
X1758373Y450326D02*
X1761707Y452469D01*
X1768373Y452469D01*
X1771707Y450326D01*
X1771707Y437469D01*
X1818373Y437469D02*
X1818373Y450326D01*
X1818373Y452469D01*
X1818373Y450326D02*
X1821707Y452469D01*
X1825040Y452469D01*
X1828373Y450326D01*
X1831707Y452469D01*
X1835040Y452469D01*
X1838373Y450326D01*
X1838373Y437469D01*
X1828373Y450326D02*
X1828373Y437469D01*
X1848373Y437469D02*
X1848373Y450326D01*
X1848373Y452469D01*
X1848373Y450326D02*
X1851707Y452469D01*
X1855040Y452469D01*
X1858373Y450326D01*
X1861707Y452469D01*
X1865040Y452469D01*
X1868373Y450326D01*
X1868373Y437469D01*
X1858373Y450326D02*
X1858373Y437469D01*
X1007540Y466540D02*
X2172540Y466540D01*
X1413373Y478469D02*
X1426707Y478469D01*
X1433373Y482754D01*
X1433373Y495611D01*
X1426707Y499897D01*
X1413373Y499897D01*
X1416707Y499897D02*
X1416707Y478469D01*
X1443373Y487040D02*
X1453373Y493469D01*
X1456707Y493469D01*
X1463373Y489183D01*
X1443373Y478469D02*
X1443373Y493469D01*
X1483373Y478469D02*
X1483373Y491326D01*
X1483373Y495611D02*
X1483373Y497754D01*
X1506707Y499897D02*
X1506707Y482754D01*
X1513373Y478469D01*
X1536707Y499897D02*
X1536707Y482754D01*
X1543373Y478469D01*
X1593373Y499897D02*
X1593373Y478469D01*
X1613373Y478469D01*
X1643373Y482754D02*
X1636707Y478469D01*
X1630040Y478469D01*
X1623373Y482754D01*
X1623373Y489183D01*
X1630040Y493469D01*
X1636707Y493469D01*
X1643373Y489183D01*
X1640040Y487040D01*
X1623373Y487040D01*
X1653373Y476326D02*
X1660040Y472040D01*
X1666707Y472040D01*
X1673373Y476326D01*
X1673373Y482754D01*
X1673373Y489183D01*
X1666707Y493469D01*
X1660040Y493469D01*
X1653373Y489183D01*
X1653373Y482754D01*
X1660040Y478469D01*
X1666707Y478469D01*
X1673373Y482754D01*
X1703373Y482754D02*
X1696707Y478469D01*
X1690040Y478469D01*
X1683373Y482754D01*
X1683373Y489183D01*
X1690040Y493469D01*
X1696707Y493469D01*
X1703373Y489183D01*
X1700040Y487040D01*
X1683373Y487040D01*
X1713373Y478469D02*
X1713373Y491326D01*
X1713373Y493469D01*
X1713373Y491326D02*
X1716707Y493469D01*
X1723373Y493469D01*
X1726707Y491326D01*
X1726707Y478469D01*
X1763373Y482754D02*
X1756707Y478469D01*
X1750040Y478469D01*
X1743373Y482754D01*
X1743373Y487040D01*
X1750040Y491326D01*
X1756707Y491326D01*
X1763373Y487040D01*
X1763373Y499897D02*
X1763373Y478469D01*

M02*
